<?xml version="1.0" encoding="utf-8"?>
<!-- Generator: Adobe Illustrator 21.1.0, SVG Export Plug-In . SVG Version: 6.00 Build 0)  -->
<svg version="1.1" id="Layer_1" xmlns="http://www.w3.org/2000/svg" xmlns:xlink="http://www.w3.org/1999/xlink" x="0px" y="0px"
	 viewBox="0 0 334.6 49.2" style="enable-background:new 0 0 334.6 49.2;" xml:space="preserve">
<path d="M32.4,48h9.3l-16-46.8h-9.9L0,48h9.3l2.7-9.1h17.6L32.4,48z M14.4,31.2l6.5-21.5l6.4,21.5H14.4z"/>
<path d="M45.6,48h8.7V30.6h7.8L71.4,48h10L71,29c2.7-0.8,9.2-3.9,9.2-12.9C80.2,10.7,78,7,75,4.6c-4.1-3.3-8.3-3.3-14.5-3.4H45.6V48
	z M58.3,8.7c5.2,0,7.4,0.1,9.3,1c3.6,1.9,3.7,5.3,3.7,6.3c0,6.8-6.3,7.2-8.2,7.2c-1.7,0.1-2.8,0.1-5.8,0.1h-3V8.7H58.3z"/>
<polygon points="116.9,1.2 82.6,1.2 82.6,9.1 95.2,9.1 95.2,48 104,48 104,9.1 116.9,9.1 "/>
<path d="M116.9,39.2c3.5,5.7,9,8,12.1,8.9c2.9,0.8,5.8,1.1,8.4,1.1c9.9,0,19.9-4.3,19.9-15c0-10-8.9-12.6-15.2-13.9l-4.8-1.1
	c-4.2-0.8-8.6-1.6-8.6-5.6c0-3.6,4.1-5.7,8.8-5.7c7.5,0,10.5,4.6,12.1,7l7.2-5.4C153.4,5,148,0,137.9,0c-11,0-18.5,5.7-18.5,14.6
	c0,7.8,5.8,10.6,7.9,11.5c1.5,0.6,2.9,0.9,5.9,1.7l5.6,1.2c4.2,1,4.4,1.1,5.4,1.5c1.5,0.6,3.5,1.7,3.5,4.6c0,1.6-0.6,4-4,5.4
	c-1.7,0.7-3.4,0.8-5,0.8c-9.9,0-13.4-5.4-14.5-7.1L116.9,39.2z"/>
<path d="M162.1,48h8.8V32.2h6.8c2.9,0,5.3,0,7.9-0.6c8.4-1.9,11.3-8.6,11.3-14.8c0-9.5-6.4-13.6-11-14.9c-2.7-0.7-5.4-0.7-8-0.7
	h-15.8V48z M177.5,8.7c2.9,0,5.9,0.1,8.1,1.9c0.8,0.7,2.3,2.5,2.3,6c0,1.7-0.3,6.6-5.8,8c-1.5,0.4-3.1,0.4-5,0.4h-6.3V8.8L177.5,8.7
	L177.5,8.7z"/>
<path d="M225.5,48h9.3l-16-46.8H209L193.2,48h9.3l2.7-9.1h17.6L225.5,48z M207.6,31.2l6.5-21.5l6.4,21.5H207.6z"/>
<path d="M268.5,31.5c-0.3,1.1-0.9,2.8-2.5,4.8c-1.9,2.5-4.6,4.6-9,4.6c-7.4,0-13-5.9-13-16.6c0-10,5.3-16.3,12.9-16.3
	c4.8,0,7.4,2.7,8.4,4.1c1.2,1.8,1.6,3.8,1.7,4.6l8.8-2.3c-1-3.2-4.4-14.4-19-14.4c-11.9,0-22.2,8.6-22.2,24.5
	c0,15.6,9.5,24.7,21.9,24.7c7.6,0,12.9-3.4,16.2-7.2c2.3-2.8,3.4-5.5,4-7L268.5,31.5z"/>
<polygon points="314.9,9 314.9,1.2 281.7,1.2 281.6,48 316.6,48 316.6,40.1 290.3,40.1 290.3,27.6 312.8,27.6 312.8,20 290.3,20 
	290.3,9 "/>
<polygon points="325.9,6.7 322.4,1.2 321.1,1.2 321.1,9 322.5,9 322.4,3.5 325.8,9 327.1,9 327.1,1.2 325.7,1.2 "/>
<polygon points="330.5,7.7 334.6,2.4 334.6,1.2 328.9,1.2 328.9,2.5 332.8,2.5 328.5,7.8 328.5,9 334.6,9 334.6,7.7 "/>
</svg>
