<?xml version="1.0" encoding="utf-8"?>
<!-- Generator: Adobe Illustrator 21.1.0, SVG Export Plug-In . SVG Version: 6.00 Build 0)  -->
<svg version="1.1" id="starling_x5F_text_xA0_Image_1_"
	 xmlns="http://www.w3.org/2000/svg" xmlns:xlink="http://www.w3.org/1999/xlink" x="0px" y="0px" viewBox="0 0 1000.8 1158"
	 style="enable-background:new 0 0 1000.8 1158;" xml:space="preserve">
<g>
	<path d="M497.6,675.4c2.7,2.5,2.7,2.5,3.9,6.5c1.5,0.5,3,0.9,4.4,1.5c0.8,0.3,1.2,1.2,0.9,2c-0.5,1.3-1.2,2.6-1.9,3.8
		c-0.3,0.5-0.9,0.9-1.5,1.1c-1.2,0.3-2.5,0.4-3.5,0.6c-0.5-0.4-0.9-0.6-0.9-0.8c-0.7-2.9-2.5-4.7-5.3-5.6c-1.2-0.4-2.3-1.1-3.6-1.8
		c-0.9,0.5-1.9,1-2.8,1.6c-0.9,0.6-1.7,1.4-2.6,2.1c-2.3,1.7-3.9,1.1-4.3-1.6c-0.1-0.5-0.2-1-0.1-1.4c0.4-1.8-0.1-3.5-0.9-5.1
		c1-1.6,1.8-3.2,2.8-4.6c0.4-0.6,1.2-1.3,1.8-1.3c2.8-0.3,4.3-2.4,6.2-3.9c-0.4-1.5-1.3-1.7-2.3-1.1c-0.8,0.5-1.4,1.3-2.2,1.8
		c-2.4,1.5-5.3,0.9-6.6-1.6c-0.8-1.6-1.6-3-2.8-4.4c-1.5-1.7-1.4-3.7-0.3-5.8c1.1-2.2,3.1-3,5.3-3.7c-0.4-1.5-1.7-1.6-2.6-2
		c-2.1-1.1-3.6-2.4-3.7-5.1c0-1-0.7-2.1-1.2-3c-2.1-3.8-1.8-5.7,1.7-8.7c0.4-0.3,0.8-0.5,1-0.6c-0.5-6-0.5-6.1,3.4-9.4
		c-0.4-0.7-1.1-0.6-1.7-0.6c-2.2-0.1-3.1-1.4-3.4-3.4c-0.9-4.9,2.5-8,7.4-6.6c0.4,0.1,0.9,0.3,1.3,0.4c2.9-2.3,2.9-2.3,6.8-3.1
		c0.6-1.1,1-2.3,1.7-3.3c1.6-2.3,4.4-2.8,6.7-1.2c3.3,2.2,4,5.4,1.9,8.7c-0.8,1.3-1.9,2.2-3.4,2.4c-0.8,0.1-1.5,0.2-2.7,0.4
		c0.3,0.8,0.4,1.4,0.7,1.8c0.5,0.6,1.2,1,1.7,1.7c2,3,1.3,4.5-2.4,4.9c-0.3,0-0.6,0.1-1.4,0.3c1.2,0.4,2.1,0.4,2.9,0.8
		c2.9,1.6,3.1,4.5,0.6,6.5c-1.2,1-2.5,2-3.8,3c-1,0.7-2.2,0.7-3.1-0.2c-0.9-0.9-1.6-1.9-2.7-3.2c-0.4,1.7-0.7,2.8-1,4
		c-0.3,1.1-0.8,2.1-1.1,3.2c-0.2,0.6-0.2,1.3,0,1.9c0.1,0.4,0.5,0.8,0.9,1c0.4,0.1,1.1,0.1,1.3-0.2c0.6-0.7,1.1-1.5,1.6-2.3
		c0.7-1.2,1.6-1.9,3.1-1.7c1.1,0.1,2.2,0,3.2,0c0.7,0.8,1.2,1.6,1.8,2.4c1-0.2,1.9-0.4,2.9-0.6c1.7,1.6,1.6,3.4,0.5,5.2
		c-0.2,0.4-0.8,0.8-1.1,0.7c-1.7-0.3-3,0.4-4.5,1c-1.2,0.5-2.7,0-4.4-0.1c0.2,1.8,1.9,2.2,2.6,3.3c0.7,1.1,1.6,2,1.6,3.3
		c-1.1,1.5-3-0.2-4.2,1.4c-0.1,1.5,1.4,2.5,1.6,4.2c1.3-0.1,2.4-0.3,3.5-0.3c1.2-0.1,2.1,0.7,2.2,2c0.2,1.7-0.3,3.2-1.5,4.4
		c-0.4,0.4-1,0.8-1.7,1.4c0.8,1.2,1.9,2.2,2.4,3.4C497.5,672.5,497.4,673.9,497.6,675.4z M488.4,661.1c-1.3-1.4-1.9-2.8-3.5-3.9
		c-0.5,1.5-0.4,2.5,0.3,3.4C485.9,661.3,486.7,661.8,488.4,661.1z M490.4,679.2c-0.2-0.4-0.3-0.7-0.5-0.9c-0.1-0.1-0.3-0.1-0.4-0.1
		c-0.5,0.3-1,0.7-1.4,1.1c-0.5,0.5-0.6,1.1,0.1,1.5c0.3,0.1,0.9,0,1.2-0.3C489.8,680.2,490.1,679.7,490.4,679.2z"/>
	<path d="M715.4,319.8c-2.2-0.6-4.1-0.2-5.6,1.7c-0.8,1-1.9,1.6-3.3,1.8c-0.8,0.1-1.6,0.3-2.3,0.7c-1.6,0.9-3.1,0.6-4.4-0.5
		c-0.7-0.6-1.5-1.2-2.3-1.8c-1,0.9-1.9,1.8-2.9,2.6c-2.2,1.7-4.4,1.6-6.5-0.3c-1.1-0.9-2.2-1.9-3.2-2.8c-0.1-0.1-0.3,0-0.8-0.1
		c-0.7,0.6-1.4,1.4-2.3,1.9c-2.9,2-7.6,0.1-8.4-3.4c-0.2-0.8-0.1-2.1,0.4-2.7c3-3.6,5.6-6.3,9.9-1.2c0.2,0.2,0.5,0.3,0.9,0.6
		c1.2-0.4,2.5-1,3.8-1.4c1.2-0.4,2.5-0.6,3.7-0.9c2.1-0.5,3.2,0.1,4.2,2.1c0.4,0.7,0.7,1.4,1.1,2.1c0.1,0.1,0.3,0.1,0.4,0.2
		c2.1-4,2.1-4,5.6-6.1c0.6,0.1,1.4,0.2,2.2,0.3c0.8,0.1,1.6,0.2,2.4,0.3c0.2-1.5-1.3-1.2-1.8-1.8c-1-1.1-1.9-2.2-1-4.1
		c1,0.9,2,1.6,2.9,2.4c0.4,0,0.8,0.1,1,0c3.2-1.4,6.8-1.6,10-3.2c0.9-0.4,1.7-0.7,2.3-1.5c0.9-1.2,2.2-1.3,3.5-0.8
		c2.8,1.3,6.2,1.8,7.9,5c0.4,0.7,1.6,0.9,2.5,1.2c2.2,0.7,3.5,1.9,3.9,4.2c0.2,1,0.3,2,0.7,3c0.3,0.8,0.5,1.9,1.1,2.4
		c3.2,2.9,4.3,6.3,2.2,10.3c1.2,1.2,2.3,2.1,3.1,3.2c0.4,0.5,0.5,1.6,0.2,2.2c-0.2,0.6-1.1,0.9-1.9,1.6c-0.6-1-1.2-1.8-1.5-2.6
		c-0.8-1.9-2.2-3.3-4.2-3.6c-0.5-0.1-0.9-0.2-1.3-0.3c-3.2-1-4.1-5.1-1.7-7.5l2.3-2.3c-3.3-0.3-5.2,2.6-8.2,2.2
		c-0.3,0.9-0.9,1.6-1.5,2.4c-0.9,1.2-0.5,3,0.8,3.7c0,0,0,0,0,0c1.4,0.8,2.8,1.6,4.1,2.5c1,0.7,1.3,2.1,0.7,2.9
		c-0.6,1-2.5,1.3-3.4,0.5c-0.9-0.7-1.4-1.8-2.2-2.5c-0.6-0.5-1-1.1-1.3-1.7c-0.8-1.5-1.8-2.6-3.2-3c-0.3-0.1-0.6-0.2-0.9-0.4
		c-1.6-1-3.2-2.1-4.9-2.9C716,323.6,716.7,321.2,715.4,319.8z"/>
	<path d="M275.6,395.9c0-1-0.2-1.9,0-2.9c0.3-2.1,1.6-3.4,3.5-4.2c0.8-0.4,1.7-0.6,2.6-0.8c-0.7-2-1.6-2.5-2.7-1.7
		c-0.6,0.5-1.2,1.1-1.8,1.6c-0.6,0.5-1.2,1-2,1.6c-0.7-0.5-1.4-0.8-1.9-1.3c-1.3-1.4-2.5-2.9-3.7-4.4c-1.4-1.8-1-3.1,1.1-4.2
		c0.3-0.1,0.6-0.3,0.9-0.3c1.2-0.2,2-0.8,2.7-1.8c1.3-2,3.1-2.7,5.5-1.9c1-1.5,1.3-3.3,2.9-4.4c1.6-1,3.4-0.6,5-0.6
		c1.3-5.1,1.3-5.1,7.2-6.5c0.3-1.1,0.7-2.3,1.1-3.5c0.6-2.1,2.1-3,4.2-3.2c2.2-0.2,3.7,0.5,4.7,2.4c0.3,0.6,0.6,1.1,0.8,1.5
		c1.7,0.4,3.3,0.7,4.7,1.3c3.5,1.4,4.3,6.7,1.3,9.1c-1.6,1.3-3.4,1.7-5.3,0.7c-1.1-0.6-2.1-1.4-3.1-2.2c-0.5-0.4-0.8-1-1.3-1.3
		c-0.5-0.3-1.4-0.5-1.7-0.2c-0.5,0.4-0.6,1.2-1,2.1c1.2,0.4,2.1,0.6,2.9,1c0.9,0.4,1.7,0.8,2.5,1.4c1.6,1.2,2.7,2.7,2.4,4.9
		c-0.4,2.5-1.8,4.1-4.1,4.8c-1.2,0.4-2.5,0.3-4,0.4c-0.9,1.5-0.6,3.6-2.1,5c-1.6,1.4-3.5,1.4-5.2,1.6c-0.8,1.4-1.5,2.6-2.2,3.8
		c-2.4,0.3-3.1,2.5-4.4,3.9c-1.5,1.6-4.8,2.3-6.7,1.2c-1.2-0.7-1.9-2-2.8-3.1L275.6,395.9z M291.7,375.3c-0.3,1.4-0.8,2.3,0.2,3.3
		c1.1-0.3,2.5,0.7,3.8-0.4c0-0.7,0-1.5,0-2.3C294.4,375.8,293.2,375.6,291.7,375.3z M288.2,381.8c-1.6,0-2.6-0.2-3.4,0.1
		c-0.4,0.1-0.8,0.9-0.9,1.4c-0.1,0.6,0.2,1.3,1,1.3c0.7,0,1.6,0.1,2.2-0.3C287.4,383.9,287.6,383,288.2,381.8z"/>
	<path d="M517.6,373.2c2,0.7,4,1.4,6.3,2.1c0.6-0.3,1.4-0.8,2.2-1.3c1-0.6,1.7-1.4,2-2.6c0.2-0.9,0.5-1.8,0.9-2.7
		c1.3-2.7,5.3-4.5,8.4-1.4c2,2,2.7,4.3,1.6,7c-0.4,0.9-0.8,1.7-1.2,2.3c0.2,1.3,1.1,1.3,1.8,1.6c2.5,1.1,4.6,2.7,6.6,4.9
		c1.9-1.3,3.9-2.2,6.3-1.9c3.9,0.4,6,2.7,5.6,6.8c0,0.6-0.1,1.2-0.2,1.9c0.6,0.2,1,0.4,1.5,0.5c0.6,0.1,1.2,0,2.1,0
		c0.3-0.7,0.5-1.5,0.9-2.1c2-3.5,6.6-4,9.3-1.1c1.7,1.8,1.5,3.8,0.9,5.8c-0.5,1.9-1.8,3-3.7,3.3c-1.1,0.2-2.2,0.2-3.6,0.3
		c-0.4,0.7-0.8,1.6-1.3,2.4c-1.6,2.4-4.6,3.2-7.2,2.1c-1.9-0.9-3.1-2.3-3.2-4.4c0-1.1,0-2.2,0-3.3c-4.5-1.4-4.5-1.4-8.1-5.2
		c-0.9,0.5-1.8,1-2.7,1.5c-2.1,1.1-4.1,0.9-5.8-0.5c-1.7-1.4-3.3-3-5.1-4.6c-2.5,0.7-4.8-0.6-7.5-1.6c-0.6,0.4-1.4,0.9-2.2,1.3
		c-1.6,0.9-3.1,0.7-4.5-0.4c-0.9-0.7-1.7-1.4-2.6-2.2c-1.8-1.6-3.3-3.2-5.8-3.9c-3.1-0.9-4.5-4.9-3.2-7.5c1.6-3.3,6-4,8.5-1.3
		C515.7,370.1,516.5,371.5,517.6,373.2z"/>
	<path d="M874.9,705.7c-0.6-1-1.1-1.9-1.7-2.9c-2.1-0.3-4-0.6-6.1,0.3c-2.4,1-4.8,0-6.8-1.2c-2.2-1.2-2.9-5-1.6-7.3
		c1-1.9,4.1-3.2,6.3-2.4c0.7,0.3,1.4,0.8,1.9,1.4c0.7,1,1.3,2.1,2,3.4c1.2-1.4,0.5-2.6,0.4-3.8c0-1.4,1.1-2.4,2.5-2.2
		c3.4,0.4,5.4,3.7,4.3,7c-0.2,0.4-0.4,0.9-0.5,1.3c-0.2,0.7,0.3,1.5,0.9,1.4c0.6-0.1,1.5-0.5,1.6-0.7c0.1-2,0.1-4.1-0.1-6.2
		c-0.1-1.2-0.8-2.4-1.1-3.5c0.1-0.5,0.1-0.9,0.3-1.1c0.8-1.2,1.2-2.9,2.7-3.2c1.8-0.4,3.8-0.5,5.7-0.4c0.6,0,1.4,0.8,1.8,1.4
		c1.1,1.5,1.2,3.3,0.8,5c-0.3,1.4-1.3,2.6-1,4c1,1.1,2.2,0.8,3.3,0.8c3.1,0,4.5,0.8,5.3,3.1c1,2.8,0.3,5.6-2,7.3
		c-0.5,0.4-1.1,0.7-1.6,1c-1.6,1-3.3,1.1-5,0.1c-0.9-0.5-1.9-1.1-3-1.7c-0.2,0.7-0.5,1.2-0.4,1.5c0.2,0.4,0.7,0.6,1.1,0.9
		c1.6,1,2.5,2.4,2.2,4.4c-0.1,0.8,0,1.6,0.2,2.4c0.6,3.4-0.2,6.3-2.6,8.8c-0.3,0.3-0.5,0.8-0.8,1.2c0.5,1,1.1,1.9,1.6,2.9
		c1.5,3.3,0.9,5.8-1.7,8.2c-1.5,1.4-3.6,1.6-5.3,0.5c-1.6-1-2.5-2.5-2.7-4.3c-0.5-3.3,0.1-4.9,3.2-8c-1-1-2-2-2.8-3.1
		c-1.2-1.5-1.2-2.9-0.2-4.4c1.9-2.9,2.7-3.5,7.2-4.7c-0.2-1.1-1.1-0.9-1.9-0.9c-1.1,0-2.3,0.3-3.1-1.1c1.4-1.7,1.7-4.1,3.4-5.9
		c0.7-0.7,0.7-1.8,0.2-2.7c-0.5-0.9-1.9-1.1-2.4-0.3c-0.6,1.1-1.2,2.2-1.7,3.4c-0.9,0.1-1.7,0.2-2.4,0.3L874.9,705.7z"/>
	<path d="M425.3,689.4c0-0.8,0-1.6-0.1-2.4c-0.1-1.6,0.6-2.7,2.3-3.1c0.4-0.1,0.7-0.6,1-0.8c-0.3-1.3-1.1-1.6-2.2-1.3
		c-0.6,0.2-1.1,0.6-1.6,1c-0.6,0.5-1.1,1.3-1.7,1.6c-2.9,1.4-5.4,3.2-8,5c-1.6,1.1-3.5,0.3-4.3-1.6c-0.9-2.1-0.6-4.4-0.3-6.6
		c0.1-0.4,0.4-0.9,0.7-1.2c0.3-0.4,0.9-0.5,1.1-0.9c1.7-2.9,4-4.9,7.3-5.6c0.6-0.1,1.1-0.6,1.5-1.1c2.4-2.4,5.2-1.9,8.1-1
		c1.6,0.5,2.1,1.4,3.3,4.5c1.5,0.1,3,0.3,4.9,0.5c-0.1-1.2-0.2-2.3-0.2-3.2c-4.9-1.9-6.6-4.1-5.8-7.5c0.6-2.7,3.7-5.2,6.3-4.9
		c1.7,0.2,2.9,1.2,3.9,2.5c0.8,1,0.8,1.3,1.1,4.8c0.7,0,1.5,0,2.3,0.2c3.2,0.6,4.8,3,3.8,5.9c-0.6,1.8-1.7,3.3-2.7,5.3
		c0.3,2.9,0.1,3.8-1.6,5.2c-1.4,1.3-3,1.8-4.9,0.7c-1.5,0.9-2.9,1.8-4.5,2.8c0,0.7,0.1,1.5,0,2.2c-0.3,2.3-1.7,3.7-3.7,4.5
		c-1.5,0.6-2.9,0.1-3.7-1.3c-0.8-1.4-1.6-2.8-2.3-4.2L425.3,689.4z"/>
	<path d="M525.1,345.5c-3,4.2-4.8,4.8-8.4,3.1c-3.2-1.5-3.6-3.1-2.1-8.9c-0.6-0.5-1.4-1-2.1-1.5c-1.2-0.9-2.1-2.2-2.1-3.6
		c-0.1-1.9-0.5-3.2-1.9-4.6c-1.9-1.8-1.7-4.3-1-6.9c-0.8-0.4-1.5-0.8-2.1-1.2c-2.1-1.1-2.9-2.8-3-5.1c0-2,0.3-3.9,2.3-4.9
		c2.1-1,4.2-1.7,6.2,0.3c0.2,0.2,0.5,0.3,1.1,0.6c0.5-0.5,0.9-1.1,1.5-1.6c1.9-1.5,3.9-2.1,6.2-1.1c0.6,0.3,1.2,0.5,1.9,0.9
		c0.6-0.7,1.1-1.5,1.8-2c3.2-2.7,7.6-1.2,8.5,2.9c0.2,1,0.2,2.2,0,3.3c-0.4,2.2-2.4,3.4-4.7,2.9c-0.5-0.1-0.9-0.4-1.4-0.5
		c-0.5-0.1-0.9-0.2-1.6-0.3c-1.9,0.9-3.1,3-5.5,3.4c-2.2,0.3-4-0.9-5.7-1.7c-0.9,0.5-1.2,1.2-0.5,1.6c0.6,0.5,1.4,0.7,2.2,1
		c2.3,0.8,3.8,2.3,3.7,5c-0.1,1.2,0.4,2.1,1.3,3c2.5,2.3,2.6,4.9,0.8,7.8c-0.1,0.1,0,0.3,0,0.5c1.3,1.3,2,1.5,2.4,0.3
		c1-2.9,3-3.9,5.9-3.8c3.3,0.1,5.6,2.9,5.1,6.2c-0.4,2.6-2.4,4.7-5,5.1C527.6,345.6,526.5,345.5,525.1,345.5z"/>
	<path d="M703.6,653c1.5,1.4,2.3,2.5,1.7,4.1c-0.3,0.7-0.3,1.6-0.5,2.3c-0.3,1.4-1.1,2-2.4,1.8c-1.5-0.2-2.7-1.1-2.6-2.3
		c0.1-1.3,0.3-2.5,0.6-3.9c-1.3-1.2-2.6-2.5-4-3.8c-1.5-1.4-2.4-2.9-1.9-5.1c0.1-0.4-0.2-0.9-0.3-1.3c0-0.1-0.2-0.3-0.3-0.3
		c-0.3,0-0.7,0-0.8,0.2c-0.3,0.3-0.6,0.8-0.8,1.2c-0.4,0.7-0.6,1.5-1,2.2c-1.7,3-4,3.9-7.2,2.7c-1.6-0.6-3-1.7-4.8-2.8
		c-0.6,0.2-1.4,0.5-2.3,0.8c-3.8,1-6.7-1.8-5.9-5.7c0.4-2,1.8-3.3,3.6-4.2c0.9-0.4,1.9-0.5,2.8,0c1.5,0.9,2.9,1.8,4.5,2.8
		c0.9-0.4,1.8-1,2.9-1.3c1-0.3,2.2-0.2,3.3-0.3c-0.2-1.4-0.8-2.2-1.7-2.1c-1.1,0-2.2,0.2-3.3,0.3c-2.5,0.2-5.4-1.7-6-3.8
		c-0.6-2,0.5-5.1,2.3-6.4c2.1-1.6,5.4-1.1,7.3,1.2c0.6,0.7,0.9,1.7,1.3,2.5c0.3,0,0.7,0.2,0.9,0.1c2-1.4,4.3-1.7,6.3-0.3
		c1.8,1.2,3.9,2.3,4,4.9c0,0.3,0,0.7,0.2,0.9c1.7,1.8,2.1,4.2,2.6,6.5c0.2,0.9,0.7,1.8,1.3,2.5C704.8,648.4,705.2,650.5,703.6,653z"
		/>
	<path d="M711.3,681.6c0.2,0.4,0.3,1,0.7,1.2c1.1,0.6,2.3,1.1,3.4,1.6c2.2-1.7,4.3-3.4,6.5-4.9c0.6-0.4,1.2,0,1.7,0.9
		c-1,1.1-2.1,2.2-3.2,3.3c-1,1-1.9,2.1-2.9,3.1c-1,1.1-3.1,5.3-3,6.8c0,0.6,0.4,1.1,0.7,1.9c1.6-0.7,2.3-1.9,2.9-3.2
		c1.3-2.7,1.3-2.7,4.4-3.9c-0.3-0.8-0.7-1.7-1-2.5c3.9-3.1,4.5-3.1,9.9,0.2c1.9-1.4,4.1-2.6,6.1,0.4c-0.4,0.4-0.8,0.9-1.2,1.2
		c-1,0.8-2,1.6-3,2.4c-1.2,1-1.4,3.5-3.9,2.9c-0.1,0-0.3,0.1-0.3,0.2c0.3,2.3-1.6,3.7-2.3,5.7c-1.5,4.4-5.4,5.3-9.2,2.6
		c-0.8-0.5-1.5-1.2-2.4-1.9c-0.8,0.7-1.5,1.6-2.4,2c-1,0.4-2.1,0.4-2.9,0.6c-1.9-1-1.1-2.9-1.9-4c-0.9-1.3-1.1-2.6-0.6-4.1
		c0.1-0.4-0.4-1.1-0.6-1.7c-0.3-0.6-0.9-1.1-0.9-1.6c0-1.6-1.1-1.7-2.2-2c-0.4-0.1-0.7-0.5-1.2-0.9c0.5-0.4,0.8-0.7,1.2-0.9
		c2.3-0.8,4.3-2.1,5.9-4c0.5-0.6,1.3-0.9,1.9-1.4L711.3,681.6z"/>
	<path d="M233.8,149.7c1.5-2.4,1.7-4.7,4.3-5.2c1.7-0.3,3.2-0.2,4.6,0.6c1.6,0.9,2.5,2.4,2.9,4.2c0.3,1.7-0.1,2.7-2.2,5.5
		c-6.3,1.2-6.3,1.2-10.5-2.1c-1,0.8-1.9,1.7-3,2.4c-0.6,0.4-1.4,0.8-2.1,0.8c-1.6,0-3.1,0-4.5,0.9c-0.6,0.4-1.9,0.3-2.7-0.1
		c-1.2-0.4-2.2-1.2-3.4-2c-2.1,0.4-4.3,0.3-6.5-0.5c-3.4-1.4-4.6-6-2.3-8.8c1.5-1.8,3.5-2.1,5.7-1.7c2,0.4,3.6,1.5,4.1,3.6
		c0.4,1.5,0.4,3.1,0.7,4.9c1,0.4,2.1,0.9,3.7,1.6c-0.2-1.9-0.5-3.2-0.6-4.6c-0.2-4.5,4.3-7.3,8.3-5.2c0.8,0.4,1.5,1.2,2,2
		C232.7,147,233.1,148.1,233.8,149.7z"/>
	<path d="M394.2,501c0.6-0.2,1.1-0.5,1.7-0.7c0.6-0.3,1.1-0.6,1.7-0.8c2.6-0.7,5.4,0.4,6.6,2.6c1.1,1.9,0.5,5.5-1.3,7.1
		c-0.6,0.5-1.3,0.9-1.9,1.4c-1.3,0.9-2.7,1.1-4,0.2c-1.6-1.1-2.9-2.6-4.7-3.3c-1.7-0.7-3.7-0.7-5.6-1.1c-1.3-0.3-2.3-1.1-3-2.2
		c-0.5-0.8-1-1.6-1.5-2.3c-1.1,0-0.8,0.8-1,1.3c-0.1,0.5-0.2,1-0.5,1.3c-1.5,1.2-3.1,2.3-5.1,2.3c-5.7,0-7.3-4.5-5.5-8.5
		c0.9-2.1,2.9-2.9,5.1-2.9c0.9,0,1.9,0.3,2.8,0.6c1,0.4,2,0.9,3,1.3C386.3,492.6,392.3,492.4,394.2,501z"/>
	<path d="M479.1,388.4c2.3-1.9,4.7-2.1,7.2-1c1.1-0.9,0.1-2.6,1.6-3.3c1.6-0.8,3.3-1.4,5-0.9c0.9,0.2,1.8,0.8,2.4,1.4
		c0.7,0.8,1.2,1.9,1.6,2.9c0.6,1.3,0.3,2.6-0.9,3.4c-1.3,0.9-2.7,2.1-4.1,2.2c-2.2,0.2-2.9,1.6-3.9,3.4c0.3,0.7,0.8,1.5,1.1,2.4
		c1,2.6,0.6,5.1-1.2,6.5c-2.1,1.7-5.2,1.6-7.5-0.3c-1.3-1.1-2.6-2.3-4.2-3.6c0-0.5,0.1-1.2,0.2-2c0-0.3,0.2-0.6,0.3-0.9
		c1.2-5.7-0.1-7.2-4.8-10c-0.7-0.4-1.5-0.5-2.2-0.8c-0.5-0.2-1.1-0.4-1.7-0.7C471.4,383.6,474.1,383.8,479.1,388.4z"/>
	<path d="M862,688.2c-2.1,1.8-3.9,3.3-5.6,4.8c-0.4,2,0.4,3.6,0.5,5.4c0.1,3,1.8,4.7,4.3,5.7c0.7,0.3,1.5,0.5,2.2,0.8
		c0.8,0.4,1,1.8,0.4,2.5c-1,1.3-2.3,2.2-3.9,2.7c-3.3,1-6.1-0.4-7.2-3.7c-0.4-1.2-0.6-2.4-1.4-3.5c-2.4-3.4-2.3-5,0.4-8.5
		c0.2-0.3,0.4-0.5,0.7-1c-0.6-1.4-2.3-2.5-1.9-4.5c0.4-1.9,1-3.7,2.6-5c0.6-0.5,1.2-1,1.9-1.5c-0.3-2-0.6-3.8-0.9-5.7
		c-0.3-2.4,1.2-4.2,3.5-3.9c1.6,0.2,3.1,0.7,4.6,1.2c1.8,0.7,2.5,2.3,2.2,4.3c-0.3,1.6-0.9,3.1-2.1,4.2c-0.6,0.5-1.2,1.1-1.8,1.7
		C861.1,685.5,861.5,686.7,862,688.2z"/>
	<path d="M372.2,658.7c0.8,2.4,1.3,4.9,0.2,7.6c1.1,0.8,2,1.5,3.1,2.3c0.8-1.1,1.3-2.1,2-2.9c2.5-2.7,6.6-2.4,8.6,0.6
		c0.4,0.5,0.6,1.1,0.9,1.7c1,2,0.9,4-0.6,5.8c-1.5,1.8-3.5,2.1-5.7,1.5c-1.3-0.4-2.6-1.2-4.1-1.9c-0.5,0.5-1,1.1-1.5,1.6
		c-0.5,0.6-1,1.2-1.7,1.7c-1.8,1.4-3.9,1.5-5.8,0.4c-1.8-1-2.7-2.7-2.6-4.8c0.1-1.2,0.4-2.5,0.7-4c-0.8-0.6-1.8-1.1-2.6-1.8
		c-2.4-2.2-2.6-4-0.7-6.7c1.1-1.5,2.6-2.4,4.4-2.6c0.9-0.1,1.9,0.2,2.8,0.4c0.9,0.3,1.7,0.8,2.6,1.3L372.2,658.7z"/>
	<path d="M462.9,374.7c1.2,0.3,1.8,0.4,2.4,0.7c3.6,1.8,4.4,5.8,1.7,8.7c-1,1.1-2,2-3.5,2.4c-0.7,0.2-1.5,0.5-2.1,1
		c-2.1,1.5-4.3,1-6.4,0.5c-1-0.2-1.6-1.1-1.8-2c-0.4-1.8-0.3-3.5,0.5-5.1c0.3-0.6,1.1-1.2,1.7-1.5c0.8-0.4,1.8-0.5,2.7-0.9
		c0.2-0.1,0.3-0.5,0.3-0.8c0-0.1-0.1-0.3-0.2-0.4c-0.7-0.3-1.5-0.7-2.2-0.7c-0.9,0-1.9,0.4-2.8,0.5c-2.7,0.3-5.3-1.5-6-3.8
		c-0.6-2.3,0.5-4.8,2.9-6c1.4-0.7,3-1,4.5-1.3c1.1-0.2,2.2-0.2,3.3-0.3c2.4-0.2,3.9,0.8,4.9,3C463.6,370.6,463.7,372.5,462.9,374.7z
		"/>
	<path d="M390.6,686.8c-0.2,0.4-0.5,0.8-0.6,1.2c-0.1,0.6,0.1,1.2,0.2,2.2c0.8-0.7,1.2-1,1.7-1.4c2.6-2.3,4.8-2.4,7.5-0.3
		c0.7,0.6,1.4,1.2,2.1,1.8l-0.2-0.2c0,0.8,0.1,1.6,0.1,2.4c0,1.3-0.4,2.5-1.4,3.5c-0.9,0.9-1.8,1.9-2.8,2.6c-3,2.2-6.1,1.5-8-1.7
		c-0.2-0.4-0.4-0.8-0.8-1.5c-0.5,0.5-0.9,1-1.3,1.4c-0.6,0.7-1.5,0.8-2.1,0.2c-0.9-1-1.7-2.3-2.7-3.7c-0.3,0.1-0.9,0.4-1.4,0.3
		c-0.5-0.1-1.3-0.6-1.4-1c-0.3-1.2-0.3-2.5-0.4-3.8c-0.9-0.3-1.8-0.6-2.7-0.8c-4-1.2-4.1-6.7-2.1-8.7c1.7-1.8,3.8-2.2,6.1-1.7
		c2.1,0.5,3.6,1.9,3.6,3.9c0.1,2.4,1.4,3.7,3.1,5.2C388.1,686.6,389.3,686.7,390.6,686.8L390.6,686.8z"/>
	<path d="M499.3,695c-0.3,1.9-0.6,3.7-0.9,5.6c0.7,0.7,1.1,1.4,1.7,1.9c3.7,2.6,4.3,3.1,8,0.4c1-0.7,2.2-1.3,3.2-2
		c2.5-1.9,5.1-2.4,8.1-1.1l-0.2-0.2c0.4,0.9,0.8,1.7,1.1,2.6c1.2,3.1,0.3,5.6-2.6,7.3c-1.1,0.6-2.1,0.7-3.2-0.1
		c-1.6-1.1-3.1-2.2-4.7-3.4c-2.4,0.4-4.7,0.8-7,1.3c-4.3,0.8-5.4,0.3-7.8-3.5c-0.4-0.6-1-1.1-1.6-1.7c-1.8-1.6-1.8-1.5-1.5-4.5
		c-0.4-0.1-0.9-0.1-1.3-0.2c-3.4-0.8-5.7-4.2-4.9-7.5c0.1-0.6,0.4-1.2,0.8-1.7c2.1-2.7,7.6-2.6,9.1,0.5c1.1,2.3,2.5,4.3,3.7,6.5
		L499.3,695z"/>
	<path d="M510.4,392.4c1.1,2.5,0,4.3-1.7,6c-1.7,1.6-3.8,1.5-5.9,1.2c-0.7,1-1.2,1.9-1.9,2.8c-1.1,1.3-2.6,1.9-4.3,1.8
		c-1.6-0.1-3.3-0.1-4.2-1.8c-1-1.9-1.4-3.9-0.7-6c0.2-0.7,1-1.2,1.6-1.6c1.5-1,2.7-1.2,6.2-1.4c0.3-0.6,0.5-1.3,0.9-2
		c0.4-0.7,0.8-1.3,1.4-2.2c-0.7-0.5-1.3-1-1.9-1.5c-1.5-1.2-2.1-2.8-2.1-4.6c0-1.8,0.5-3.5,2.3-4.5c1.9-1.1,3.8-1.5,5.9-0.2
		c1.3,0.9,2.1,2,1.8,3.6c-0.2,1.1-0.4,2.2-0.6,3.3l-0.2,0.2c-0.3,0.5-0.6,1-0.9,1.6c-0.7,1.4-0.6,1.6,1,2.4c0.3,0.1,0.6,0.2,0.9,0.3
		C508.7,390.6,509.5,391.5,510.4,392.4z"/>
	<path d="M519.4,699.8c-0.9-2.4-1.4-4.8-0.2-7.4c0.4-0.8,0-2.2-0.3-3.2c-0.3-1.3-0.6-2.5-0.2-3.8c0.7-2.5,2.5-3.7,5-3.5
		c2.2,0.2,4.2,1.1,5.2,3c1.6,3.1,4.2,4.6,7,6.3c1.1,0.7,2.2,1.3,3.4,2c-0.3,2.4-1.8,3.7-3.8,4.5c-2.1,0.9-4-0.2-5.8-1.2
		c-0.4,0.6-0.6,1-0.9,1.4c-2.3,3.3-4,3.8-7.7,2.3c-0.6-0.2-1.2-0.5-1.8-0.7L519.4,699.8z"/>
	<path d="M401.4,690.2c-0.3-0.6-0.5-1.2-0.9-1.7c-2.2-2.4-1.9-4.8,0.1-7.6c0.6-0.1,1.5-0.4,2.5-0.5c2.1-0.2,3.4,0.5,4.1,3
		c0.6,2.2,1.1,4.3,0.7,6.6c1.6,0.7,3,1.3,4.6,2c1.5,2.3,2.2,4.8,0.4,7.4c-0.2,0.3-0.3,0.6-0.4,0.8c-0.6,0.8,0.4,2-0.6,2.6
		c-1.3,0.8-2.7,0.7-4.1,0.2c-0.6-0.2-1.1-0.5-1.6-0.7c-5.1,3.3-8.5,4.1-11.7,0.6c0.3-0.4,0.5-0.8,0.8-1.1c2.1-1.6,4.3-3.2,6.5-4.8
		c0.1-0.1,0.3-0.2,0.4-0.3c1.4-1,2.1-2.5,2.1-4.1c0-1.7-1.6-2.2-2.9-2.7L401.4,690.2z"/>
	<path d="M391.5,387.7c0.8-1.8,1.6-3.3,2.1-5c1-3.2,5.8-4.1,8.1-2.8c2.5,1.4,3.6,5.2,1.9,7.9c-1.5,2.4-3.3,4.4-6.6,3.5
		c-0.6-0.2-1.2,0-1.7,0c-1,0.8-0.3,1.6-0.2,2.3c0.2,2.2-1.1,4.3-3.1,4.7c-1.2,0.3-2.5,0.4-3.8,0.3c-3.5-0.2-5.6-2.7-5.3-6.5
		c0.2-3,3.1-5.3,6.4-5C390,387.3,390.8,387.6,391.5,387.7z"/>
	<path d="M827.3,760c-1-0.8-1.8-1.4-2.5-2.1c-1.8-1.7-2.2-3.8-1.7-6.1c0.4-1.8,1.4-3.1,3.3-3.7c4.4-1.4,8.1,1.8,7.3,6.4
		c-0.2,1.2-0.7,2.4-1.1,3.8c0.9,1.1,1.9,2.1,2.6,3.3c2.1,3.4,0.6,7.9-3,9.1c-2.2,0.7-4.1,0.3-5.7-1.3c-1.7-1.7-2.2-4-1.2-6.1
		C825.9,762.2,826.5,761.3,827.3,760z"/>
	<path d="M454.4,361.5c-0.8,0.8-1.4,1.7-2.3,2.4c-2.2,1.9-5.2,2-7.4,0.2c-2.2-1.8-2.7-5.2-1.1-7.8c0.6-1,1.6-1.5,2.7-1.8
		c2.1-0.6,4.1,0.1,6.1,0.8c0.7-0.8,1.2-1.6,1.8-2.3c1-1.2,2.2-1.8,3.7-1.8c1.8,0,4-0.7,5.1,1.5c1.3,2.5,1.8,5.2,0.1,7.7
		c-1,1.6-2.6,2.3-4.5,2C457.2,362.2,455.9,361.8,454.4,361.5z"/>
	<path d="M324.7,310.7c-1.4,0-2.7,0.2-3.9,0c-3.5-0.7-5.4-4.4-4.1-7.7c0.8-2,2.3-2.9,4.3-3.2c2.2-0.3,4.2,0,5.5,2
		c0.7,1,1,2.3,1.7,3.7c0.9,0,1.8-0.1,2.7,0c0.9,0.1,1.9,0.2,2.8,0.5c2.1,0.9,3.3,3,3.1,4.9c-0.3,2.9-1.9,5-4.3,5.7
		c-2.2,0.6-4.1,0-5.5-1.9C326,313.5,325.5,312.2,324.7,310.7z"/>
	<path d="M362.4,645.9c-1.1,0.1-2.2,0.1-3.3,0.2c-2.7,0.1-4.3-1.6-4.8-4.3c-0.2-0.9-0.1-1.9,0.1-2.8c0.1-0.8,0.5-1.5,0.9-2.5
		c-0.6-0.6-1.2-1.2-1.8-1.9c-0.4-0.5-0.9-1-1.1-1.5c-0.9-2.2-1.1-4.4,0.4-6.3c1.3-1.7,5-2.5,7.1-1.6c2.1,0.8,3.6,4.4,2.8,7
		c-0.3,0.9-0.9,1.7-1.3,2.4c0.1,1.4,1.3,1.4,1.9,2.1c0.6,0.7,1.3,1.4,1.7,2.3c1,2.1,0.9,4-1,5.6c-0.6,0.5-1.1,1.1-1.7,1.7
		L362.4,645.9z"/>
	<path d="M498,548.5c0.6-0.8,1.4-0.9,2-0.3c0.3,0.4,0.2,1.2,0.1,1.8c0,0.3-0.3,0.6-0.5,0.8c-1.5,1.3-5.8,1.4-7.1,0
		c-1.2-1.3-2.6-2.3-4.1-3.2c-1.6-1-1.7-1.7-1-3.7c0.2-0.4,0.4-0.9,0.7-1.4c-0.4-0.2-0.8-0.5-1.2-0.5c-0.7,0-1.3,0-1.6-0.8
		c-0.3-1,0.3-1.4,1.2-1.6c0.4-0.1,1-0.2,1.3-0.5c1.3-1.4,2.8-1.3,4.5-0.5c0.7-0.8,1.3-1.5,2-2.3c0.4-0.4,0.9-0.7,1.5-0.6
		c0.5,0,1,0.1,1.5,0.2c1.2,0.1,2.2-0.1,3-1c0.4-0.5,0.9-0.9,1.5-1.2c0.9-0.4,1.9-0.3,2.7,0.4c0.8,0.7,0.8,1.7,0.4,2.6
		c-0.3,0.7-0.8,1.3-1.3,2c0.9,1.1,2.5,1.5,2.6,3.6c-0.5,0.9-1.1,2.2-2,3.3c-1.1,1.4-2.9,1-3.8-0.6c-0.8-1.4-1.6-2.7-2.4-3.9
		c-1.9-0.1-3.3,2.2-5.1,0.5c-0.1-0.1-1.1,0.6-1.4,1.1c-0.2,0.3,0,1,0.2,1.3c0.4,0.4,1.1,0.6,1.7,0.6c0.4,0,0.8-0.5,1.2-0.7
		c2.2-1.1,3.7-0.2,3.7,2.3C498.2,547,498.1,547.8,498,548.5c-1.3-0.4-2.6-0.8-3.9-1.3c-0.1,0-0.3,0.1-0.4,0.2c0,1.5,1.1,1.7,2.2,1.7
		C496.5,549.2,497.2,548.8,498,548.5z"/>
	<path d="M372.2,658.7l0.1,0.2c-1.4-4.1-1.4-4.1,1.1-7.8c0-1.2-1.1-1.4-1.8-2c-1.7-1.5-2.2-3.4-1.8-5.6c0.4-2.1,1.7-3.4,3.7-4
		c2.4-0.7,4.5,0.1,6.1,1.9c1.6,1.7,1.6,3.8,0.7,5.8c-0.5,1-1.2,1.9-1.9,3c0.8,0.8,1.7,1.4,2.4,2.2c2.5,3.1,1.8,7.1-1.4,9.1
		c-1.5,0.9-3.1,1-4.5,0C373.9,660.6,373.1,659.6,372.2,658.7z"/>
	<path d="M522.9,357.7c-1.5,0.9-2.8,1.8-4.2,2.4c-1.6,0.7-3.4,1.1-5-0.1c-1.9-1.4-2.2-3.4-1.9-5.6c0.4-2.4,1.7-3.6,4.1-4
		c2.5-0.5,4.8-0.1,6.6,2.3c0.9-0.7,1.5-1.4,2.2-1.9c2.5-1.7,5.2-1.6,7.5,0.3c1.6,1.3,2.2,4.5,1.4,6.7c-1.1,2.7-4.8,4-7.3,2.5
		C525,359.6,524,358.6,522.9,357.7z"/>
	<path d="M181.7,204.2c1.7,0.7,3.1,1.3,4.4,1.8c1.5,0.6,2.2,1.8,2.4,3.3c0.1,0.6,0.2,1.3,0.1,1.9c-0.3,1.9-0.7,3.9-2.7,4.7
		c-2.3,1-4.7,0.8-6.8-0.7c-1-0.7-1.4-1.7-1.6-2.8c-0.2-1.6-0.2-3.2-0.4-5.1c-1.1-0.5-2.4-1.1-3.6-1.8c-2.3-1.4-3-3.7-1.7-6.2
		c0.4-0.7,0.8-1.4,1.3-2c1.3-1.5,2.9-1.8,4.7-0.8c0.6,0.3,1,0.7,1.6,1c1.7,1,2.4,2.4,2.3,4.4C181.6,202.7,181.7,203.4,181.7,204.2z"
		/>
	<path d="M877.7,762.5c1.5,0.8,2.7,1.3,3.8,1.9c2.5,1.3,2.7,3.7,2.7,6.2c-0.1,2.2-1.3,3.5-3.1,4.4c-3.3,1.6-7.2-0.6-7.5-4.1
		c-0.2-1.9,0-3.3,1.4-7.2c-0.6-0.5-1.3-1.2-1.9-1.8c-1-1-2.1-1.9-3.1-3c-2.5-2.7-1.6-5.6,2-6.3c1.9-0.4,3.8,0,5.5,0.8
		c1.1,0.5,1.8,1.9,1.6,3.2C878.7,758.5,878.2,760.3,877.7,762.5z"/>
	<path d="M310.7,345.8c0.9,1.5,1.8,2.9,2.8,4.5c0.5,0.1,1,0.2,1.4,0.1c1.6-0.3,2.8,0.5,3.7,1.7c0.3,0.4,0.6,0.7,0.9,1.1
		c2.1,3,1.3,6.4-2.1,7.9c-1.4,0.7-2.7,0.7-4.1-0.2c-2-1.2-2.6-1.9-4-4.9c-2-0.2-4.3-0.3-6-1.9c-1.1-1-1.9-2.1-2-3.7
		c-0.1-3.3,2.5-5.8,5.8-5.4c1.3,0.1,2.5,0.6,3.7,0.9L310.7,345.8z"/>
	<path d="M743.7,698.2c-3.5,3.6-6.3,4.4-8.8,2.7c-2.3-1.5-3.4-4.8-2.5-7.1c1.3-3.1,3.9-4.1,8.8-3.3c0.8-0.9,0.9-2.4,2.4-2.8
		c1.6-0.4,3.1-0.6,4.7,0c2.7,1.1,4,4.1,3.1,7.2C750.6,697.7,748.2,698.7,743.7,698.2z"/>
	<path d="M454.1,340.6c-1.1-0.7-2.1-1.2-3-1.9c-2.4-1.8-2-5.3,0.6-6.8c4.3-2.5,6.5-1.9,9,2.4c0.7,1.2,1.4,2.4,2.6,3.3
		c3.2,2.6,3.2,7.3,0.3,10.1c-0.4,0.4-1.1,0.7-1.7,0.8c-3.4,0.4-5.9-1.1-7.1-4.3C454.4,343.1,454.3,342,454.1,340.6z"/>
	<path d="M258.3,392.3c0.1,0.9,0.2,1.9,0.4,2.8c0.5,2.1,1.2,2.5,3.4,2.3c1.6-0.1,3.2-0.3,4.7-0.2c2.3,0.2,4-0.5,5.4-2.3
		c0.4-0.6,1-1.2,1.4-1.6c1.6,0.4,1.4,1.8,2,2.7l-0.1-0.1c-0.1,1.3-0.1,2.5-0.2,4.1c-0.9,0.2-1.7,0.6-2.6,0.7
		c-1.1,0.1-2.2,0.1-3.2,0.8c-2.5,1.6-4.8,1.3-7.1-0.5c-0.4-0.3-0.8-0.5-1.1-0.7c-1.1-0.1-1.4,0.8-2,1.3c-1.5,1.4-3.4,1.7-5.4,1.3
		c-3.3-0.6-5.2-4.4-3.7-7.4c0.3-0.6,1.2-0.9,2.1-1.6c-0.5-1.9-0.6-3.9,0.7-5.7c0.4-0.6,1.1-1.3,1.8-1.4c0.9-0.2,1.2,0.7,1.6,1.5
		c0.6,1.5,1.3,2.9,2,4.4L258.3,392.3z"/>
	<path d="M499.2,695.2c1.4-2.7,4-2.9,6.5-3.2c1-1.2,1.9-2.3,2.8-3.3c2.3-2.4,6.2-1.6,7.4,1.5c1.6,3.8,0.3,6.6-3.7,7.7
		c-0.8,0.2-1.6,0.3-2.3,0.4c-0.7,1-1.3,1.9-2.1,2.7c-1.4,1.6-3.2,2.2-5.2,1.5c-2-0.7-3.6-2.2-3.7-4.5c-0.1-0.9,0.2-1.9,0.3-2.8
		L499.2,695.2z"/>
	<path d="M711.5,681.7c-0.4-1.7-0.7-3.4-1.1-5.1c-0.6-2.3-1.8-4.1-4.1-4.9c-0.4-0.2-0.9-0.4-1.3-0.6c-2.7-1.2-3.1-2-2.3-4.8
		c0.5-1.8,2.4-3.1,4.4-2.8c1.4,0.2,2.8,0.6,3.9,1.6c1.1,1.1,1.5,2.4,1.3,3.9c0,0.3,0.2,0.6,0.3,1.1c0.7,0,1.4,0,2.2,0.1
		c2.5,0.3,4,1.8,4.8,4.1c0.8,2.2,0,4.1-1.6,5.6c-0.8,0.7-1.9,1.2-2.9,1.4c-1.2,0.3-2.5,0.1-3.8,0.2L711.5,681.7z"/>
	<path d="M476.4,321.6c-0.1,0.6-0.3,1.3-0.1,1.8c0.2,0.7,0.7,1.4,1,2.1c1.1,2.3,0.2,4.5-2.2,5.2c-0.4,0.1-1,0.1-1.4-0.1
		c-2-1.1-3.6-2.6-4.6-4.7c-0.6-1.3-0.5-2.5,0.4-3.6c1-1.3,2.2-2.4,3.9-2.6c1.4-0.1,2.3-0.7,3.1-1.8c1.1-1.4,2.6-1.9,4.2-1.1
		c1.1,0.6,2.1,0.4,3.2,0.1c1.6-0.4,2.4,0.1,3,1.5c1.6,3.5,0.6,6.5-2.7,8c-2.4,1.1-4.3,0.3-5.4-2.1
		C478.3,323.3,478.3,321.9,476.4,321.6z"/>
	<path d="M179.9,238.5c-2.6,2.9-2.6,2.9-5.8,2.7c-1.9-0.1-2.6-0.7-3-2.4c-0.2-0.8-0.3-1.6-0.4-2.4c-0.4-4.2,0.3-5.2,4.4-5.5
		c1.6-0.1,2.9-0.6,4.2-1.6c2.7-2,6.3-0.9,7.7,1.8c1.7,3.2,0.6,6.6-2.5,8C182.9,240.1,181.4,239.4,179.9,238.5z"/>
	<path d="M592.1,683.4c-0.3,1.5,0.4,2.8,0.9,4.2c0.6,1.6,0.4,3.1-0.8,4.5c-0.7,0.8-1.5,1.2-2.5,1c-1.4-0.3-2.8-0.5-4.2-0.7
		c-2.2-0.4-3.8-1.6-4.6-3.8c-1.8-4.9,0.1-7.6,5.5-7.7c0.5,0,0.9,0,1.2,0c2.2-1.3,2.8-3.6,4.1-5.7c0.9,0.4,1.8,0.6,2.5,1.1
		c1.2,0.9,1.4,1.7,0.7,2.8C594.1,680.6,593.1,682,592.1,683.4z"/>
	<path d="M405.3,523.4c-1.7-1.7-2.5-4-3.1-6.2c-0.2-0.6-0.3-1.3-0.2-1.8c0.2-0.5,0.7-1.1,1.1-1.4c0.3-0.2,1,0,1.3,0.2
		c1.1,1.1,2.1,2.4,3.2,3.5c1.2,1.1,1.2,2.5,1,4.1c1.9,1,3.9,2,6.1,2.4c1.5,0.2,2.1,1.4,2.4,2.7c0.6,3.1-1.7,6.1-4.9,6.4
		c-0.6,0.1-1.3-0.1-1.8-0.4c-1.1-0.6-2.1-1.4-3.2-2c-1.7-1.1-1.7-1.1-3.3,0.8c-0.1,0.1-0.3,0.1-0.4,0.2c-1.6-1.4-2-2.2-1-2.9
		C404.5,527.5,404.7,525.5,405.3,523.4z"/>
	<path d="M258.4,392.4c-0.1-1.6-0.3-3.1-0.2-4.7c0.1-1.3,0.9-2.3,2.1-3c3.1-1.5,8.7-0.2,10.8,2.6c2.3,3.1,0.8,7.6-3,8
		c-3.5,0.3-7.4,0.6-9.8-3.1L258.4,392.4z"/>
	<path d="M594.1,1022.5c0-3.6,1.8-6.4,4.7-7.5c1.5-0.5,2.8-0.3,4,0.7c4.2,3.5,3.2,10-1.9,12c-0.6,0.2-1.2,0.3-1.8,0.2
		C596.5,1027.7,594.1,1025,594.1,1022.5z"/>
	<path d="M574.6,690.8c0.4,0,0.9,0.1,1.4,0.1c2.6,0.4,3.7,1.4,4.3,3.8c0.7,2.7-0.2,5.3-2.4,6.7c-2.2,1.4-4.4,1.6-6.7,0.2
		c-2.1-1.2-3.2-4-2.7-6.6C568.9,692.5,571.6,690.7,574.6,690.8z"/>
	<path d="M445.9,768.4c-0.2,0.6-0.4,1.8-1,2.7c-2.9,4.4-4.8,4.1-7.9,1c-2.5-2.5-2.9-5.8-1.2-8.8c1.8-3.2,5.4-3.7,8-1
		C445.2,763.8,446,766,445.9,768.4z"/>
	<path d="M172.4,227.4c-2.4,0.1-3.9-1-4.8-2.9c-0.5-1-0.8-2.1-1.1-3.2c-0.5-2.7,1.3-5.2,4.1-5.3c1.1-0.1,2.2,0,3.3,0.2
		c2.3,0.3,3.8,1.6,4.3,3.9c0.6,2.3,0.2,4.4-1.6,6.1C175.5,227.4,173.8,227.3,172.4,227.4z"/>
	<path d="M696,678.1c0.1-2.5,2-5.2,4.4-5.6c2.2-0.4,4.1,0.5,5.5,2.1c0.8,0.9,1.4,2.1,1.9,3.3c0.8,1.9-0.3,4.3-2.3,5.2
		c-0.7,0.3-1.6,0.3-2.3,0.7C699.5,685.7,695.7,681.3,696,678.1z"/>
	<path d="M932.6,686c0,1.8-0.6,3.4-2.1,4.6c-2.6,2.1-6.8,2-9.1-0.4c-1.6-1.6-1.9-3.7-0.6-5.6c1.5-2.2,3.4-3.6,6.2-3.7
		C930.3,680.8,932.5,682.7,932.6,686z"/>
	<path d="M795.9,721.8c0,3.4-2.5,5.7-6.3,5.8c-3.6,0.1-5.7-3.3-5.9-6.4c-0.2-2.7,2.3-5.3,5-5.4C793.3,715.8,795.9,718,795.9,721.8z"
		/>
	<path d="M626.1,626.6c-0.2,3-0.8,5.6-3.7,6.9c-1.9,0.9-3.7,0.7-5.4-0.5c-1.7-1.2-2.5-2.9-2.2-4.9c0.2-1.1,0.5-2.2,0.9-3.2
		c0.8-1.9,2.1-3,4.4-3c2.5,0,4.3,1,5.6,3.1C625.9,625.5,626,626.2,626.1,626.6z"/>
	<path d="M112.7,393.3c0.2,4.3-4.5,7.2-8.5,5.3c-1.6-0.8-2.9-2-3.6-3.7c-1-2.3-0.4-4.6,1.9-5.7c1.4-0.7,3-1.1,4.6-1.3
		C110,387.7,112.6,390.3,112.7,393.3z"/>
	<path d="M854.4,725.6c-2.6-0.1-6.1-3.1-6.2-5.7c0-1,0.4-2.2,1.1-3.1c2.3-3.1,8.2-3.8,11,0.7c0.4,0.6,0.6,1.5,0.6,2.2
		C860.6,723.1,857.6,725.7,854.4,725.6z"/>
	<path d="M733.9,350.2c0.9,0,1.1,0,1.2,0c3.6,0.1,5.2,2.1,4.6,5.6c-0.1,0.9-0.4,1.9-0.3,2.7c0.1,0.7,1,1.4,0.3,2.1
		c-0.5,0.6-1.2,1.1-1.9,1.3c-0.9,0.3-1.8,0.5-2.8,0.5c-0.6,0-1.3-0.2-1.7-0.6c-1.3-1.2-2.5-2.4-3.5-3.8c-1.3-1.8-1.4-3.9-0.2-5.8
		c0.4-0.6,1.1-1.2,1.8-1.5C732.4,350.4,733.5,350.3,733.9,350.2z"/>
	<path d="M901.7,697.3c-4.2,0-6.2-2-6-6.2c0.1-3.3,2.3-5.5,5.4-5.5c3,0,6.2,3.2,6.2,6.2C907.3,694.5,904.5,697.4,901.7,697.3z"/>
	<path d="M318.7,245.6c3.5-0.3,5.7,1.2,5.9,5.2c0.2,3.6-2.3,6.3-5.7,6.3c-3.2-0.1-5.7-2.6-5.8-5.8
		C313,248.1,315.4,245.3,318.7,245.6z"/>
	<path d="M448.4,352.2c-4.1-0.1-6.1-2.6-5.4-6.6c0.5-3.1,2.3-5.2,4.6-5.4c2-0.2,4.7,1.7,5.9,4.2
		C455.4,348.4,452.8,352.4,448.4,352.2z"/>
	<path d="M871.5,729c0.1,3.6-4.3,7.1-8.1,5.2c-3.4-1.7-4.5-5.1-2.3-8.2c0.2-0.3,0.4-0.5,0.6-0.7c1.8-2,4.5-2.9,6.3-2.1
		C869.9,724,871.5,726.7,871.5,729z"/>
	<path d="M866.6,655.7c0.1-2.4,0.7-4,2.5-4.8c2.1-1,4.3-1.4,6.3,0.1c3,2.2,3.3,5.9,0.9,8.7c-3,3.5-7.2,2.9-9-1.4
		C866.9,657.4,866.7,656.3,866.6,655.7z"/>
	<path d="M96.6,192.2c0-2.2,0.9-3.6,3.1-4.3c1.2-0.4,2.5-0.8,3.7-0.8c3.8,0,6.4,4.6,4.6,8c-1,1.8-4.1,3.4-6.1,3.1
		C99,197.8,96.6,195,96.6,192.2z"/>
	<path d="M633.6,634.6c-3.3,0-5.6-2.7-5.5-6.5c0.1-3.3,1.9-5.1,5.1-5c3.7,0,6.3,2.1,6.3,5.2C639.5,631.8,636.9,634.6,633.6,634.6z"
		/>
	<path d="M650.7,646.9c-3.2,0.1-5.4-1.8-5.8-5c-0.2-2.4,0.7-4.3,2.5-5.8c2.2-1.8,4.9-1.5,6.8,0.6c1.3,1.5,1.8,3.4,1.9,5.3
		C656.1,644.6,653.6,646.9,650.7,646.9z"/>
	<path d="M331,267c3.6-0.1,5.8,2,5.9,5.3c0.1,3.2-2.9,6-6.2,5.9c-1.5-0.1-2.8-0.7-3.7-1.9c-0.5-0.8-1-1.6-1.2-2.5
		C324.8,270,326.2,266.8,331,267z"/>
	<path d="M258.3,154.7c-0.1,2.2-0.7,4.1-2.8,5.2c-2.7,1.5-7,0.2-8-2.8c-0.9-2.4-0.1-4.8,1.5-6.7c1.4-1.7,4.2-2.2,6.2-1.2
		C257.3,150.4,258.4,152.2,258.3,154.7z"/>
	<path d="M634.1,386c3.8,0.1,6.3,2.4,6.2,5.8c-0.1,2.9-2.7,5.5-5.6,5.5c-3.3,0.1-5.8-2.3-5.8-5.6C629,388.4,631.2,385.9,634.1,386z"
		/>
	<path d="M870.8,646.7c-3-0.1-5.5-2.7-5.5-5.5c0-3.3,2.5-5.6,5.9-5.6c3.6,0.1,6,2.5,5.8,5.6C876.7,644.4,874,646.8,870.8,646.7z"/>
	<path d="M112.6,136.2c2.8,0.3,5,2.8,4.8,5.5c-0.3,3.6-3.1,6.6-5.9,6.2c-3.1-0.4-6-3.4-5.8-6C106,138.4,109.2,135.8,112.6,136.2z"/>
	<path d="M144.8,228.9c3.4-0.1,5.4,1.5,6.2,4.4c0.3,1.1,0.2,2.2-0.5,3.2c-0.7,1-1.5,2.1-2.6,2.8c-3.5,2.5-8.4-0.1-8.5-4
		c0-0.5-0.1-0.9,0-1.4c0.1-2.7,1.2-4,3.8-4.7C143.9,229.1,144.5,229,144.8,228.9z"/>
	<path d="M912.7,700.2c-0.8-0.9-1.6-1.7-2.3-2.6c-2-2.5-1.9-6.4,0.2-8.7c1.6-1.7,3-2.1,5.1-1c0.8,0.4,1.7,1,2.3,1.6
		c1.1,1.1,3,1.9,2.6,3.7c-0.4,2.4-1.6,4.5-4,5.5C915.3,699.3,914,699.8,912.7,700.2z"/>
	<path d="M377.2,634.2c0.1-3.4,2.9-6.2,6.1-6c2.9,0.2,5.2,3.1,5.2,6.4c0,3-2.5,5.5-5.5,5.4C380.1,640,377.2,637,377.2,634.2z"/>
	<path d="M840.2,731.1c-0.1-3.4,2.5-6.3,5.7-6.4c2.8-0.1,5.4,2.8,5.5,6.1c0,3.1-2.7,5.9-5.7,5.8C842.8,736.6,840,734,840.2,731.1z"
		/>
	<path d="M165.1,383.9c-0.2,3.1-3,5.6-6,5.5c-3-0.1-5.4-2.9-5.3-6.2c0.1-3.1,3-5.9,5.9-5.6C162.8,378.1,165.3,381,165.1,383.9z"/>
	<path d="M186.5,282.9c0.1,3-2.6,5.5-5.9,5.7c-2.8,0.1-5.4-2.5-5.5-5.4c-0.1-3.8,2.1-6,5.8-6C184.4,277.2,186.5,279.3,186.5,282.9z"
		/>
	<path d="M173.7,331c-3.1-0.1-5.7-2.8-5.8-5.9c0-3,2.8-5.6,6-5.4c2.9,0.2,5.6,2.8,5.5,5.5C179.5,328.4,176.8,331.1,173.7,331z"/>
	<path d="M546.3,676.8c-3.6-0.1-5.9-2.3-5.7-5.5c0.2-3.2,2.8-5.7,5.9-5.7c3.2,0,5.5,2.5,5.5,5.9C552,675.1,550,676.9,546.3,676.8z"
		/>
	<path d="M238.9,215c-0.1-3.5,2-5.7,5.5-5.7c3.6-0.1,5.9,1.9,6,5.2c0.1,3-2.6,5.8-5.6,6C241.4,220.6,239,218.3,238.9,215z"/>
	<path d="M320.4,242.9c-3.9,0.1-6.5-2.2-6.8-5.8c-0.2-2.9,2.7-5.7,5.8-5.7c3.1,0,5.7,2.7,5.6,5.9C325,240.2,322.8,242.8,320.4,242.9
		z"/>
	<path d="M171.3,370.2c3.3-0.1,5.5,2,5.5,5.3c0,3.4-2.3,5.9-5.5,6.1c-3.2,0.1-6.4-2.9-6.3-5.9C165.1,372.6,167.8,370.3,171.3,370.2z
		"/>
	<path d="M394.9,622.1c-0.1,0.5-0.3,1.7-0.7,2.6c-1.2,2.6-4.7,3.9-7.3,2c-1.7-1.3-3.1-2.8-3.7-4.8c-0.4-1.1-0.4-2.2,0.5-3.2
		c1.9-2.2,5.6-3,8.3-1.8C393.9,617.9,394.8,619.4,394.9,622.1z"/>
	<path d="M842.8,741.9c0,3.2-2.5,5.6-5.9,5.5c-3.1,0-5.3-2-5.4-4.8c-0.1-3.8,2-6.2,5.5-6.3C840.4,736.2,842.8,738.6,842.8,741.9z"/>
	<path d="M107.9,199.8c2.8-0.1,5.1,2,5.4,5c0.3,3.3-2.5,6.4-5.7,6.4c-3,0-5.5-2.3-5.7-5.3C101.8,202.4,104.3,199.9,107.9,199.8z"/>
	<path d="M363.3,390.5c3.6,0.1,6,2.3,5.8,5.6c-0.2,3.2-2.9,5.8-6,5.7c-3.1-0.1-5.6-2.5-5.4-5.5C358,391.9,360.1,390.4,363.3,390.5z"
		/>
	<path d="M155.3,248.9c-2,0.1-3.6-1-4.6-3c-1-2.1-0.7-4,0.7-5.7c0.4-0.5,0.8-1,1.3-1.4c3-2.5,5.3-2.1,7.5,1.2
		c1.9,2.9,1.8,5.3-0.2,7.3C158.8,248.3,157.3,248.8,155.3,248.9z"/>
	<path d="M175,334.1c2.9,0.1,5.3,2.5,5.3,5.6c0,3-2.9,5.8-5.9,5.6c-3.4-0.2-5.5-2.3-5.4-5.4C169,336.2,171.3,334,175,334.1z"/>
	<path d="M835.6,814.1c-3.4,0-6-2.4-5.9-5.5c0-3.3,2.4-5.8,5.7-5.7c3.3,0.1,5.8,2.6,5.7,5.8C840.9,811.7,838.5,814.2,835.6,814.1z"
		/>
	<path d="M313.6,278.4c0.2-0.6,0.4-1.7,0.8-2.7c1.3-2.8,6.1-4.3,8.7-0.8c1.5,2.1,2.2,4.2,0.9,6.6c-1.3,2.5-3.4,3.6-5.8,3.1
		C314.7,283.8,313.7,281.3,313.6,278.4z"/>
	<path d="M336.8,244.1c0.1,3-2.6,5.8-5.7,5.9c-3,0.1-5.7-2.6-5.8-5.7c-0.1-3,2.6-5.7,5.8-5.7C334.5,238.5,336.7,240.6,336.8,244.1z"
		/>
	<path d="M870.8,677.9c2.9,0.1,5.6,3.1,5.5,6.2c0,2.6-3.1,5.5-5.7,5.4c-3.5-0.2-5.8-2.8-5.6-6.4
		C865.1,680.2,867.9,677.8,870.8,677.9z"/>
	<path d="M819.2,638.4c3.1-0.1,5.3,1.5,6.1,3.9c0.7,2.1,0,4.6-1.9,6c-0.8,0.6-1.7,0.9-2.5,1.4c-2.3,1.4-6.2-0.7-6.5-3.6
		c-0.2-2.6,0.5-4.8,2.3-6.5C817.6,638.9,818.8,638.6,819.2,638.4z"/>
	<path d="M158.3,121.2c3.1,0,5.4,2.2,5.5,5.3c0.2,3.2-2.2,5.9-5.4,6c-3.2,0.1-5.9-2.2-5.8-5C152.8,124.3,154.5,121.2,158.3,121.2z"
		/>
	<path d="M676.3,328.7c-0.2,0.7-0.4,1.9-0.9,3.1c-0.9,2-3.4,3.2-5.5,2.8c-2.7-0.4-4.3-2.1-4.5-4.8c-0.3-4,3.3-7.3,7.3-6.7
		C674.8,323.5,676.3,325.5,676.3,328.7z"/>
	<path d="M345.6,569.7c0-4.6,2.1-6.3,6.4-5.5c2.5,0.5,3.9,2.1,4.4,4.4c0.5,2.2-0.2,4.1-2.1,5.5c-1.6,1.2-3.3,1.9-5.3,1
		C346.6,573.9,345.4,572.1,345.6,569.7z"/>
	<path d="M187.2,315.7c0.1,2.9-2.5,5.5-5.5,5.5c-2.8,0.1-5.8-3.1-5.8-6c0-3,2.6-5.8,5.3-5.9C184.3,309.3,187.2,312.3,187.2,315.7z"
		/>
	<path d="M359.5,585.3c-2.4,0-5.1-2.4-5.2-4.6c-0.2-3.7,2.4-6.7,5.8-6.7c3-0.1,5.4,2.3,5.5,5.4C365.7,582.6,362.9,585.3,359.5,585.3
		z"/>
	<path d="M352.7,608.6c-2.5,0-3.7-1-4.5-3.9c-0.2-0.6-0.3-1.2-0.4-1.9c-0.5-3.8,2.5-6.4,6.2-5.3c1.4,0.4,2.8,0.9,3.6,2.1
		c1.2,1.6,1.6,3.5,0.7,5.4C357.4,607.1,355.9,608.6,352.7,608.6z"/>
	<path d="M111.4,153.4c-0.1,3.3-2.3,5.7-5.2,5.7c-3.4,0-6.1-2.6-6-5.6c0.2-3.5,2.4-6.3,4.9-6C109.4,148.2,111.6,149.7,111.4,153.4z"
		/>
	<path d="M180.4,175.2c0-3.5,2.2-5.4,5.8-5.5c3.2-0.1,5.9,3.3,5.9,5.3c0,2.7-3.2,5.9-5.9,6C183.2,181.1,180.4,178.3,180.4,175.2z"/>
	<path d="M819.5,780.8c3,0,5,2.1,5.1,5.2c0.1,3.3-2.5,6.2-5.5,6.1c-3.2-0.1-5.8-2.8-5.7-5.9C813.5,782.8,815.9,780.7,819.5,780.8z"
		/>
	<path d="M339.9,216.9c0,2.5-1.2,4.3-3.3,5.4c-2,1-4,0.5-5.8-0.8c-2.7-1.9-2.8-8.1,1.4-9.5c0.3-0.1,0.6-0.2,0.9-0.3
		C337.8,210,340.1,213.6,339.9,216.9z"/>
	<path d="M826.8,699.2c0,2.9-2.4,5.1-5.7,5.2c-3.2,0.1-5.6-2.3-5.5-5.3c0.1-3.8,2.5-6.2,5.9-6.1
		C824.5,693.1,826.8,695.8,826.8,699.2z"/>
	<path d="M164,250.6c0-3.9,2.3-5.9,6.5-5.8c2.5,0.1,4.8,2.6,4.9,5.5c0.1,2.9-2.7,5.6-5.9,5.7C166.4,256,164,253.6,164,250.6z"/>
	<path d="M129.6,397.1c0-3.6,2-5.8,5.5-5.8c3.1,0,5.6,2.4,5.6,5.3c0,3-2.8,6-5.7,6C132,402.6,129.6,400.2,129.6,397.1z"/>
	<path d="M115.3,397c0.1-3.6,2.1-5.7,5.5-5.7c3.3,0,5.8,2.5,5.7,5.6c0,2.9-3.1,5.8-5.9,5.6C117.5,402.4,115.3,400,115.3,397z"/>
	<path d="M151.7,125c0.1,2.5-2.4,4.5-5.6,4.6c-3.4,0.1-5.7-2.2-5.7-5.6c0-3.3,2-5.4,5.3-5.5C149.2,118.4,151.6,121,151.7,125z"/>
	<path d="M463.7,396.4c-0.1-3.5,2-5.7,5.5-5.7c3.1,0,5.7,2.2,5.8,5.1c0.1,3.2-2.8,6.3-5.9,6.2C466,401.8,463.7,399.5,463.7,396.4z"
		/>
	<path d="M406,541.5c0-1.7,0.9-3,2-4.1c2.6-2.7,3.4-2.8,6.5-0.8c0.8,0.5,1.5,1.2,2.1,1.9c1.6,2,1.7,3.6,0.7,5.3
		c-1.4,2.3-3.5,3.3-6,2.7c-0.9-0.2-1.8-0.5-2.7-0.9C406.8,544.8,406,543.5,406,541.5z"/>
	<path d="M350.4,396.3c-3.3-0.1-5.5-2.3-5.4-5.4c0.1-3.2,2.8-5.9,5.7-6c3,0,5.7,2.4,5.7,5.3C356.3,393.7,353.7,396.3,350.4,396.3z"
		/>
	<path d="M336.6,352.1c3.4,0.2,5.7,2.6,5.5,5.8c-0.2,2.9-3.2,5.4-6.3,5.3c-3-0.2-5.5-3.1-5.1-6.3
		C331.2,354.2,332.9,351.6,336.6,352.1z"/>
	<path d="M789.3,831.6c-3.2,0-5.5-2.2-5.5-5.2c0-3.3,2.3-5.7,5.6-5.8c3.1-0.1,5.4,2.1,5.5,5.3C795,829.1,792.6,831.6,789.3,831.6z"
		/>
	<path d="M857.1,814.3c0-3.9,2.4-6.1,6.4-6c2.7,0.1,4.7,2.5,4.7,5.6c-0.1,3.3-2.5,5.8-5.7,5.8C859.3,819.7,857.1,817.4,857.1,814.3z
		"/>
	<path d="M824.5,794.6c3.1,0.1,5.4,2.5,5.4,5.5c-0.1,3.2-3.1,6-6.3,5.8c-2.8-0.2-5-2.5-5-5.4C818.4,797,820.9,794.5,824.5,794.6z"/>
	<path d="M814.3,772.5c0.3-4,3.1-5.6,6.5-5.4c2.7,0.1,5,2.9,4.8,5.6c-0.2,3.2-3.1,5.9-6,5.6C816.4,777.9,814.1,775.4,814.3,772.5z"
		/>
	<path d="M874.8,705.5c0.1,2,0.1,4.1,0.3,6.1c0.3,3.2-1.9,5.7-5,5.4c-1.2-0.2-2.5-0.6-3.6-1.2c-1.9-1-2.5-2.8-2.4-4.8
		c0.1-1.7,0.8-3,2.5-3.7c2.6-1.1,5.2-2.6,8.2-1.6L874.8,705.5z"/>
	<path d="M137.4,234.5c0,0.3,0,0.6-0.1,1c-0.5,4.5-4.5,6.4-8.2,3.9c-3.3-2.2-3.7-5.6-1.1-8.5c1.7-1.8,4.5-2.4,6.6-1.5
		C136.8,230.4,137.3,232.3,137.4,234.5z"/>
	<path d="M809.2,685.6c0-1.3,0.3-2.5,1.2-3.5c0.4-0.5,0.9-0.9,1.4-1.3c1.5-1.3,3.1-2.1,5.2-0.9c2.2,1.4,3.4,3.3,3.3,5.9
		c0,0.4-0.2,0.9-0.5,1.3c-0.9,1.3-1.9,2.5-2.9,3.7c-0.8,0.9-1.9,1.1-3,0.7C811.3,690.8,809.3,688.1,809.2,685.6z"/>
	<path d="M749.2,678.3c0.1-3.4,2.4-5.7,5.7-5.7c3.1,0.1,5.4,2.4,5.4,5.5c0,3.2-2.7,5.9-5.8,5.8C751.5,683.8,749.1,681.3,749.2,678.3
		z"/>
	<path d="M115.5,131.5c0.1-3.7,2.6-6,6.2-5.7c2.7,0.2,5.1,3.1,5,6c-0.1,2.7-3,5.3-5.8,5.3C117.8,137,115.4,134.5,115.5,131.5z"/>
	<path d="M562.1,627.9c-0.1-3.2,1.8-5.5,4.5-5.6c3.9-0.1,6.6,2.2,6.7,5.8c0.1,2.4-1.7,5.4-5.4,5.4
		C564.5,633.4,562.2,631.3,562.1,627.9z"/>
	<path d="M495.7,324.3c-2.8,0-4.6-1.2-5.4-3.2c-1-2.6-0.5-5,1.3-6.5c1.4-1.2,3-1.7,4.9-1.4c1.1,0.2,2.3,0.6,2.7,1.7
		c0.7,1.6,1.3,3.3,1.5,4.9c0.2,1.7-0.7,3.1-2.3,3.8C497.4,323.9,496.3,324.1,495.7,324.3z"/>
	<path d="M347.6,555c0.1-3.5,2.3-6,5.5-6c2.9,0,5.9,3.1,5.7,5.9c-0.2,3-3.2,5.5-6.3,5.4C349.7,560.3,347.5,557.9,347.6,555z"/>
	<path d="M880.4,623.2c0-3.5,2.1-5.7,5.6-5.7c3.1,0,5.5,2.3,5.6,5.3c0.1,3-2.8,5.9-5.8,5.8C882.7,628.6,880.3,626.2,880.4,623.2z"/>
	<path d="M886.4,614.4c-3.4,0.1-5.6-2.2-5.7-5.7c0-3.1,2.2-5.4,5.3-5.6c3.1-0.1,5.5,2.1,5.7,5.2C892,611.6,889.6,614.3,886.4,614.4z
		"/>
	<path d="M202.7,157.7c-0.1,3-2.2,5.1-5.2,5.1c-3.5,0-6.4-2.8-6.1-6c0.2-2.9,3-5.3,5.9-5.2C200.5,151.7,202.8,154.4,202.7,157.7z"/>
	<path d="M869.4,798.7c-3-0.1-5.3-2.6-5.1-5.7c0.2-3.5,2.5-5.7,5.8-5.5c2.8,0.2,5.4,3,5.3,5.7C875.3,796.5,872.7,798.8,869.4,798.7z
		"/>
	<path d="M439.4,606c-0.1,2.8-2.4,5.1-5.2,5.1c-3.2,0-5.8-2.3-5.8-5c0-3.4,2.9-6.2,6-6C437.2,600.3,439.5,603,439.4,606z"/>
	<path d="M175.6,187.6c0.1-3.5,2.3-5.6,5.8-5.5c3.2,0.1,5.5,2.3,5.6,5.3c0.1,3.1-3.1,6.1-6.2,5.9
		C177.7,193.2,175.5,190.7,175.6,187.6z"/>
	<path d="M320.6,217.8c-2.8,0.1-4.3-0.6-5.2-2.3c-1.2-2.2-1.1-4.6-0.2-6.9c0.2-0.5,0.8-1,1.3-1.3c3.3-1.8,7.8,0,9,3.6
		c0.7,2.2-0.1,4.6-2.1,5.8C322.2,217.3,321,217.7,320.6,217.8z"/>
	<path d="M216.1,222.8c-0.1-3.2,1.8-5.5,4.6-5.5c4.8,0,6.6,2.5,6.5,5.3c-0.1,3.5-1.8,5.7-6,5.9C218.3,228.6,216.2,226.1,216.1,222.8
		z"/>
	<path d="M350.7,267.5c0-3.5,2.2-5.6,5.7-5.6c3.1,0.1,5.4,2.5,5.3,5.5c-0.1,3.2-2.5,5.7-5.3,5.7
		C353.2,273.2,350.7,270.7,350.7,267.5z"/>
	<path d="M830,629.3c2.6,0.1,4.9,0.6,6.1,3.2c1.4,3.1-0.4,7.8-4.9,7.8c-4.7,0-7.5-4.4-5.4-8.6C826.7,629.9,828.3,629.4,830,629.3z"
		/>
	<path d="M836.9,694.4c0.1-3.4,2.4-5.5,6-5.4c2.9,0.1,5.2,2.4,5.1,5.2c-0.1,3.4-2.6,6.2-5.5,6.1
		C839.5,700.4,836.8,697.5,836.9,694.4z"/>
	<path d="M506.7,1067.1c3.2,0,5.6,2.3,5.6,5.3c0,2.9-2.6,5.6-5.5,5.7c-3,0.2-6.5-2.8-6.2-5.5C501,1069.8,502.6,1067.1,506.7,1067.1z
		"/>
	<path d="M873.8,620.3c-3.2,0-5.4-2.1-5.5-5.3c-0.1-3.4,2.1-5.7,5.5-5.9c3.2-0.1,5.8,2.3,5.9,5.5
		C879.8,617.7,877.1,620.2,873.8,620.3z"/>
	<path d="M806.5,769.5c0.1,3.2-2.3,5.8-5.6,5.9c-2.8,0.1-5.2-2.1-5.4-4.9c-0.2-3.9,1.9-6.3,5.4-6.4
		C804.1,764.1,806.4,766.4,806.5,769.5z"/>
	<path d="M858.3,631.6c-3,0.1-5.7-2.3-5.7-5.2c0-3.2,2.5-5.8,5.6-5.9c3-0.1,5.7,2.3,5.7,5.2C864,628.8,861.5,631.5,858.3,631.6z"/>
	<path d="M632.1,646c0.2-3.4,2.7-5.6,6-5.4c3,0.2,5.5,3.2,5.2,6.4c-0.2,2.7-2.9,5-5.6,5C634.6,651.8,631.9,649,632.1,646z"/>
	<path d="M357.3,542c-3.1-0.1-5.4-2.5-5.3-5.5c0.1-3.5,2.6-5.8,6.3-5.7c2.6,0.1,5.2,3,5.2,5.9C363.4,539.6,360.5,542.1,357.3,542z"
		/>
	<path d="M879.8,636.2c0.1-3.8,2.4-6,5.9-6c3.3,0,5.5,2.5,5.3,6c-0.2,3-2.3,5.3-5.1,5.3C882.4,641.4,879.7,639.1,879.8,636.2z"/>
	<path d="M514.5,861c-3.4,0-5.6-2.3-5.6-5.8c0-3.4,1.8-5.1,5.4-5.2c3.5,0,5.8,2.2,5.8,5.6C520,858.6,517.5,861,514.5,861z"/>
	<path d="M670.8,342.7c-0.1,3.4-2.9,5.8-6.3,5.7c-2.4-0.1-5.2-3.5-5-6.1c0.2-3,2.5-5,5.8-5C668.3,337.3,670.9,339.8,670.8,342.7z"/>
	<path d="M101.8,174c3.6-0.1,5.3,1.8,5.6,5.1c0.3,3.2-2.3,6-5.4,6.1c-3.1,0-5.6-2.3-5.6-5.3C96.3,176.3,98.3,174.1,101.8,174z"/>
	<path d="M337.1,226.2c3,0.1,5.1,2.5,5,5.7c-0.1,3-2.5,5.5-5.4,5.6c-3.2,0.1-5.7-2.7-5.7-6.2C331,228.1,333.3,226.2,337.1,226.2z"/>
	<path d="M884.1,643c2.9,0,4.9,2.2,5,5.3c0,3.2-2.1,5.5-5.2,5.5c-3.6,0.1-6.2-2.5-6-5.9C878,644.7,880.3,642.9,884.1,643z"/>
	<path d="M320.5,621.6c3.9,0.2,6.4,2.8,6,6.4c-0.3,2.8-2.8,4.9-5.5,4.9c-2.7-0.1-4.8-1.9-5.1-4.7c-0.1-0.8-0.1-1.6-0.1-2.4
		C316,623.2,317.9,621.5,320.5,621.6z"/>
	<path d="M797.9,667c-0.1,2.9-3.2,5.8-6,5.6c-2.8-0.2-5-2.9-4.9-6.1c0.1-3.3,2.6-5.6,5.9-5.4C795.8,661.3,798,663.8,797.9,667z"/>
	<path d="M495.5,434.5c0,2.9-2.5,5.5-5.4,5.6c-3.1,0.1-5.5-2.2-5.6-5.3c-0.1-3.5,2.1-5.7,5.6-5.7
		C493.2,429.1,495.4,431.4,495.5,434.5z"/>
	<path d="M365,627.5c0.1-3.7,2.6-5.7,6.8-5.5c2.3,0.1,4.1,2.6,4,5.6c-0.1,2.9-2.7,5.5-5.6,5.4C366.9,633,364.9,630.8,365,627.5z"/>
	<path d="M884.5,784.4c0.1,3.1-2.1,5.5-5.1,5.7c-3.1,0.2-5.8-2.4-5.9-5.6c-0.1-3.3,2.3-5.7,5.6-5.8
		C882,778.8,884.4,781.3,884.5,784.4z"/>
	<path d="M866.9,628.5c-0.1-3.3,1.9-5.6,5-5.6c3.7-0.1,6.2,1.9,6.3,4.9c0.1,3.1-2.6,5.9-5.6,5.8C869.5,633.6,867,631.3,866.9,628.5z
		"/>
	<path d="M573.9,668.4c3,0.1,5.5,2.6,5.5,5.5c0,3-2.8,5.8-5.8,5.7c-3.2-0.1-5.6-2.7-5.4-6C568.4,670.4,570.8,668.3,573.9,668.4z"/>
	<path d="M518.2,300.5c-0.1-3.8,1.8-5.9,5.3-5.9c3.1,0,5.5,2.7,5.4,6.1c0,2.7-2.8,5.2-5.9,5.2C520.3,305.9,518.2,303.7,518.2,300.5z
		"/>
	<path d="M354.4,611.1c2.6,0,4.4,1.2,5.2,3.4c0.8,2.2,0.3,4.6-1.4,6.1c-1.7,1.5-4.8,1.9-6.7,0.9c-2.2-1.3-3.2-4.2-2.3-7.2
		C349.8,612.2,351.6,611.1,354.4,611.1z"/>
	<path d="M325.4,354.5c-2.9,0.1-5.3-2.5-5.3-5.5c0-3.2,2.5-5.7,5.7-5.8c2.4-0.1,5.4,3.2,5.4,5.7C331.2,352,328.7,354.4,325.4,354.5z
		"/>
	<path d="M854.1,813c0.1,3-1.6,5.2-4.3,5.6c-1.1,0.2-2.2,0.2-3.3,0c-2-0.3-3.3-2-3.3-4.1c0-0.6,0.1-1.3,0.2-1.9
		c0.7-3.9,4.3-5.8,7.9-4.2C853.3,809.4,854,811.2,854.1,813z"/>
	<path d="M634.4,379.7c0.1-3.5,2.2-5.5,5.8-5.6c2.7,0,5.3,2.8,5.3,5.7c0,2.4-2.8,5.4-5.2,5.4C637.4,385.4,634.4,382.6,634.4,379.7z"
		/>
	<path d="M615.4,637.7c0,2.9-2.9,5.9-5.8,6c-2.6,0.1-5.5-2.9-5.6-5.6c-0.1-3,2.8-5.9,5.8-5.9C612.5,632.2,615.4,635.1,615.4,637.7z"
		/>
	<path d="M377.7,513.9c0.1,2.4-1.4,4.6-3.8,5.4c-0.1,0.1-0.3,0.1-0.5,0.1c-3.2,1-5.5,0-7-3c-0.1-0.3-0.3-0.6-0.2-0.9
		c0.7-2.1,1-4.4,2.9-5.8c1.8-1.3,3.9-0.9,5.9,0C376.7,510.5,377.5,512,377.7,513.9z"/>
	<path d="M404.3,602.3c0.1,2.8-1.6,5.2-4,5.8c-1.9,0.5-5-0.3-6.5-2.9c-0.9-1.7-1.1-3.2-0.3-5c0.5-1.1,1.2-1.9,2.3-2.2
		c0.8-0.2,1.5-0.4,2.3-0.6C401.6,596.8,404.2,598.9,404.3,602.3z"/>
	<path d="M522.5,371.7c-2.2,0-3.8-0.9-5.1-2.5c-1.7-2-1.9-4.9-0.4-6.6c2-2.2,5.6-2.8,7.8-1.1c2.1,1.5,3,3.7,2.8,6.2
		c-0.1,0.8-0.7,1.8-1.3,2.4C525.2,371.3,523.9,371.8,522.5,371.7z"/>
	<path d="M332.6,319.8c2.9,0,5.1,2.4,5.1,5.8c0,2.9-2.6,5.5-5.5,5.5c-2.7,0-5.6-2.9-5.5-5.6C327,322.1,329.4,319.8,332.6,319.8z"/>
	<path d="M411,549.1c0.5,0,1,0,1.4,0c2.6-0.2,3.6,1.4,3.8,3.9c0.2,2.5-1.6,5.1-3.9,6c-2.1,0.8-5.5-0.2-6.9-2.1
		c-0.5-0.7-0.9-1.8-0.8-2.6c0.5-4.2,2.4-5.5,5.4-5.2C410.4,549.1,410.7,549.1,411,549.1C411,549.1,411,549.1,411,549.1z"/>
	<path d="M666.7,313.9c0.3,0.4,0.6,0.7,0.9,1.1c1.9,3.4,1.5,5-1.3,6.8c-3.5,2.2-6.6,0.5-8-1.5c-1.3-1.8-0.9-5.5,0.7-7.1
		c1.3-1.3,4-2,6.1-0.5c0.6,0.5,1.2,1,1.9,1.5L666.7,313.9z"/>
	<path d="M744.1,407.1c1.1,1.1,2,2,2.9,2.9c3.1,3.4,1.6,8.3-2.9,9.3c-2.5,0.6-5.4-1.4-5.7-3.9c-0.2-2,0.1-3.8,1.2-5.5
		C740.6,408.5,741.9,407.4,744.1,407.1z"/>
	<path d="M632.8,610.3c0,3.2-2.7,5.7-5.8,5.6c-2.9-0.1-5.2-2.4-5.1-5.2c0.1-3.4,2.3-5.7,5.6-5.8
		C630.5,604.9,632.8,607.1,632.8,610.3z"/>
	<path d="M113.7,223c-3.1,0-5.4-2.3-5.4-5.4c0-3.4,2.7-5.9,6.2-5.8c2.7,0.1,4.9,2.5,5,5.4C119.5,220.4,116.8,223.1,113.7,223z"/>
	<path d="M257.9,205c-0.2,1.8-1,3.7-2.9,4.8c-1.7,1-3.4,0.8-5-0.2c-1.7-1-3.1-2.4-3-4.5c0.1-2.5,1-4.6,3.4-5.8
		c0.5-0.3,1.2-0.4,1.8-0.4C254.5,199.1,257.7,202.3,257.9,205z"/>
	<path d="M404.6,570.4c-2.9,0-5.6-2-5.9-4.6c-0.4-2.7,1.6-6,4.3-6.8c0.2,0,0.3-0.1,0.5-0.1c3.6-0.2,7.2,4,6,7.4
		C408.6,568.9,406.8,570.3,404.6,570.4z"/>
	<path d="M647.8,691.6c2.7-0.1,4.8,2.1,5,5.3c0.2,3-2.2,5.6-5.2,5.7c-3.4,0.1-5.7-1.9-5.8-5C641.7,694,644,691.7,647.8,691.6z"/>
	<path d="M332.9,292.8c1.3,0,1.6,0,1.9,0c3.9,0.1,5.1,2.9,4.7,5.8c-0.4,3.2-3.2,5.1-6.2,4.4c-1.4-0.3-2.8-0.6-3.8-1.9
		c-1.6-2.1-1.4-5.7,0.8-7.4C331.2,293,332.6,292.9,332.9,292.8z"/>
	<path d="M388.2,267.2c-0.1,3.1-2.4,5.6-5.4,5.6c-3.3,0-5.7-2.2-5.7-5.1c0.1-4,2.1-6.1,5.8-6C386.2,261.7,388.3,264,388.2,267.2z"/>
	<path d="M817.8,1028.2c0,4.2-3.7,6.7-7.6,5.1c-0.8-0.3-1.7-1.1-2-1.9c-0.9-2.1-1.2-4.3-0.1-6.5c0.8-1.8,2.4-2.6,4.3-2.3
		c0.8,0.2,1.5,0.4,2.3,0.7C816.9,1024.4,817.8,1025.7,817.8,1028.2z"/>
	<path d="M174.6,348.1c3.1,0.1,5.6,2.6,5.4,5.4c-0.2,3.1-3.1,5.7-6.1,5.6c-3-0.1-5.3-2.5-5.2-5.7
		C168.9,349.8,170.8,348.1,174.6,348.1z"/>
	<path d="M878.8,804.9c0.3,4.7-4.4,6.9-6.9,6c-2.2-0.8-3.7-2.4-4.5-4.6c-0.5-1.3,0.6-3.7,1.9-4.5c1.6-1,3.5-1.6,5.4-1.5
		c0.8,0,2,0.5,2.4,1.2C878,802.7,878.4,804.2,878.8,804.9z"/>
	<path d="M651.6,380c-3.4,0.1-5.7-2.5-5.7-6.2c0-2.9,2.1-4.9,5.1-5.1c2.8-0.2,5.8,2.4,5.8,5.1C656.9,377.2,654.5,380,651.6,380z"/>
	<path d="M336.5,381.6c-0.1-3.5,2-5.6,5.6-5.7c3.2-0.1,5.5,2,5.6,5.2c0.1,2.8-2.7,5.8-5.8,5.9C338.9,387.1,336.6,384.8,336.5,381.6z
		"/>
	<path d="M953.6,668.5c0,2.8-2.5,5.1-5.2,5.1c-2.9,0-5.9-3-5.9-5.8c0.1-2.8,2.6-5.3,5.7-5.3C951.3,662.5,953.7,665.2,953.6,668.5z"
		/>
	<path d="M328.5,225.3c0,2.6-1.6,4.5-4.2,5c-3.7,0.7-7.2-2-7.3-5.7c0-1.4,0.4-2.5,1.7-3.2c0.8-0.4,1.7-0.9,2.6-1.2
		C325.2,218.9,328.5,221.2,328.5,225.3z"/>
	<path d="M326.7,320.9c-0.3,3.1-3.3,5.6-6.3,5.2c-3-0.4-5-2.9-4.7-6.1c0.3-3.5,2.7-5.5,6.1-5.2C324.8,315.1,327,317.9,326.7,320.9z"
		/>
	<path d="M185.7,365.3c-0.1,3.2-3,5.7-6.1,5.5c-2.7-0.2-5.1-2.9-5.1-5.5c0-3.1,2.7-5.7,6-5.6C183.5,359.7,185.9,362.2,185.7,365.3z"
		/>
	<path d="M200.3,227.3c2.6,0,4.7,2,5.2,4.7c0.4,2.6-1.1,5.2-3.5,6.1c-3.2,1.1-8.2-3.1-7.7-6.4C194.8,228.9,197.1,227.3,200.3,227.3z
		"/>
	<path d="M404.5,584.3c-2.7,0.1-5-2.2-5.2-5.1c-0.2-4.1,2.4-5.7,5.9-5.9c2.7-0.2,5.1,2.5,5.1,5.2
		C410.3,581.8,407.9,584.2,404.5,584.3z"/>
	<path d="M888.1,678.6c0,3.3-2.1,5.2-5.5,5.1c-3.4-0.1-6.1-2.9-5.8-6.1c0.2-2.6,2.9-4.9,5.6-4.8
		C885.6,672.9,888.2,675.5,888.1,678.6z"/>
	<path d="M843.5,634.4c-3.1-0.1-5.4-2.5-5.3-5.6c0.1-3,2.7-5.5,5.6-5.3c3.4,0.2,5.5,2.5,5.5,5.8
		C849.4,632.1,846.6,634.5,843.5,634.4z"/>
	<path d="M874.3,668.2c-0.3,3.1-2.8,5.8-5.4,6.3c-0.6,0.1-1.3,0-1.8-0.2c-0.7-0.3-1.4-0.8-2-1.2c-2.8-2-3.1-5.2-0.5-7.6
		c0.6-0.5,1.2-1,1.9-1.5c1.1-0.8,2.4-1,3.6-0.4c1.4,0.7,2.7,1.7,3.8,2.7C874.2,666.9,874.2,667.9,874.3,668.2z"/>
	<path d="M512.2,296.3c2.3-0.1,3.5,0.7,4.4,2.9c0.3,0.7,0.6,1.5,0.7,2.3c0.6,3.3-0.9,5.4-4.4,6.2c-2.4,0.5-5-1.2-5.7-3.9
		C506.1,299.8,508.3,296.4,512.2,296.3z"/>
	<path d="M662.2,635.5c0-4.2,3.9-6.8,7.3-5.2c1.1,0.5,2.1,1.4,2.9,2.3c0.5,0.5,0.7,1.4,0.8,2.2c0.3,2.7-3.7,6.7-6.4,6.5
		c-1.8-0.1-3.7-1.6-4.2-3.3C662.3,637,662.2,636,662.2,635.5z"/>
	<path d="M323.2,339.8c-2.5-0.1-5-3.2-5-6.1c0-3.1,2.6-5.3,5.8-5c2.8,0.2,5.6,3.1,5.4,5.7C329.1,337.5,326.4,339.9,323.2,339.8z"/>
	<path d="M591.6,623.8c-3.2-0.1-5.4-2.4-5.3-5.5c0.1-3.4,2.4-5.7,5.7-5.6c3.1,0.1,5.4,2.4,5.3,5.5
		C597.3,621.4,594.8,623.9,591.6,623.8z"/>
	<path d="M938.4,682.4c-4.6,0-5.4-3.6-4.4-6.5c0.3-0.7,0.7-1.4,1.1-2.1c1.5-2,4.3-2.7,6.4-1.7c2.3,1.1,3.5,3.4,3.2,5.8
		c-0.4,2.4-2.4,4.2-4.9,4.4C939.3,682.4,938.8,682.4,938.4,682.4z"/>
	<path d="M588.5,643.3c0.1,3.2-2,5.5-5.2,5.6c-3.4,0.1-5.8-2.2-5.8-5.5c0-3.1,2.3-5.3,5.4-5.4C586.1,638.1,588.4,640.2,588.5,643.3z
		"/>
	<path d="M880.5,740.7c0.6,0.2,1.8,0.5,2.9,1.1c2.7,1.8,3.2,4.9,1.1,7.4c-2.5,2.9-5.7,3.8-8.8,1.5c-0.8-0.6-1.3-1.5-1-2.5
		c0.6-2,1.2-3.9,2-5.8C877.2,741.1,878.6,740.8,880.5,740.7z"/>
	<path d="M108.5,165.9c0,3-2.2,5.4-4.8,5.4c-3.9,0-6.1-2.2-6-5.8c0-3.1,1.9-5,5.1-5C106.4,160.4,108.5,162.4,108.5,165.9z"/>
	<path d="M537.3,858.8c3.4,0,5.6,2.4,5.5,5.8c-0.1,3.5-2,5.1-5.5,5.1c-3.3-0.1-5.5-2.4-5.5-5.9C531.8,860.6,533.8,858.7,537.3,858.8
		z"/>
	<path d="M666.7,313.9l0.3,0.3c-0.5-1.2-1-2.3-1.4-3.5c-1.1-3.5,0.9-6.3,4.5-6.7c3.2-0.3,5.4,1.1,6.2,3.9c0.3,1.1,0.4,2.3-0.4,3.2
		c-1,1.2-2.1,2.4-3.3,3.3c-0.7,0.5-1.8,0.5-2.7,0.4C668.8,314.6,667.8,314.2,666.7,313.9z"/>
	<path d="M329.1,209.4c-2.6,0.1-5.4-2.9-5.6-6c-0.1-2.5,2.2-5,4.7-5c3.2-0.1,6.4,2.8,6.5,5.7C334.9,206.7,332.2,209.2,329.1,209.4z"
		/>
	<path d="M320.9,296.8c-4.2,0-6.6-4.1-4.5-7.7c0.3-0.5,0.8-1,1.3-1.3c1-0.5,2-0.9,3.1-1.3c3.7-1.5,7.1,2.8,6.1,6
		C325.9,295.5,324.2,296.8,320.9,296.8z"/>
	<path d="M402.2,589.7c0.1,3-2.3,5.4-5.5,5.4c-3,0.1-5.5-2-5.6-4.8c-0.2-3.2,2.2-5.9,5.5-6.1C399.5,584.1,402.1,586.6,402.2,589.7z"
		/>
	<path d="M751.8,573.4c0.8,0.9,1.6,1.9,2.5,2.8c2.3,2.4,2.7,5.8-0.6,8.2c-2.3,1.7-4.4,1.8-6.5,0c-0.9-0.8-1.4-1.8-1.4-2.9
		c-0.1-1.8,0.2-3.5,1.1-5.1C747.9,574.9,749.2,573.8,751.8,573.4z"/>
	<path d="M901,676.1c0.1,4.6-4.6,7.3-8.8,5c-0.5-0.3-1-0.9-1.1-1.5c-0.2-1.1-0.3-2.2-0.4-3.3c-0.3-3.4,1.1-5.2,4.3-5.6
		c2.8-0.4,5.3,1.5,5.8,4.4C901,675.5,901,675.8,901,676.1z"/>
	<path d="M646.5,668.4c1.6,0.1,3,0.7,3.7,2.4c0.2,0.6,0.5,1.1,0.8,1.7c1.2,2.2,1,3.4-0.7,4.9c-2.1,1.8-4.4,2.2-6.5,1.1
		c-3.1-1.6-3.3-2.6-2.4-6.1C642.1,669.8,643.2,668.5,646.5,668.4z"/>
	<path d="M369.1,263.6c3.4,0,5.6,2.3,5.5,5.7c-0.1,2.9-2.6,5.1-5.7,5.2c-3.2,0-5.2-1.7-5.3-4.7C363.5,265.7,365.5,263.5,369.1,263.6
		z"/>
	<path d="M714.7,288.3c0.4,0.2,1.1,0.3,1.5,0.6c1.9,1.5,2.9,3.5,2.5,5.9c-0.4,2.3-1.8,4.2-4.2,4.8c-2.3,0.6-4-0.6-5.5-2.2
		c-1.2-1.3-1.3-2.9-0.6-4.5c1-2.2,2.2-4.4,5-4.6C713.8,288.4,714.1,288.4,714.7,288.3z"/>
	<path d="M138.2,127.4c0.1,2.7-2.2,5-5.2,5.2c-3.2,0.2-5.5-2.1-5.6-5.7c-0.1-3.2,1.9-5.2,5.3-5.3
		C136.2,121.5,138.1,123.6,138.2,127.4z"/>
	<path d="M310.7,345.8l0.2,0.2c-0.5-0.8-1.1-1.5-1.6-2.3c-1.2-2-0.3-4.5,1.2-6.1c1.3-1.3,4.1-1.7,5.8-0.8c1.5,0.7,2.6,1.9,3.2,3.4
		c0.2,0.5,0.2,1.2,0.2,1.8c0,0.3-0.1,0.6-0.3,0.9C317.7,346.4,316,349.2,310.7,345.8z"/>
	<path d="M510.4,392.4c-0.8-0.9-1.7-1.8-2.5-2.7c-0.7-1.3-1.1-2.7-0.9-4.3l0.2-0.2c0.2-0.3,0.3-0.5,0.5-0.8c1.3-1.6,2.7-3.3,5.1-2.4
		c2.6,0.9,4.9,2.2,5.4,5.3c0.5,2.9-1.4,5.3-4.4,5.3C512.6,392.6,511.5,392.4,510.4,392.4z"/>
	<path d="M370.2,397.1c-0.1-3.6,1.9-5.8,5.3-5.9c3.2,0,5.6,2.4,5.7,5.7c0.1,2.6-2.9,5.2-5.8,5.2
		C372.4,402.2,370.3,400.1,370.2,397.1z"/>
	<path d="M173.1,275.7c-3.5,0-5.8-2.9-4.3-6.6c0.9-2.2,2.2-3.8,4.7-4.1c2.2-0.3,4.1,0.7,5.1,2.7C180.4,271.3,178,276,173.1,275.7z"
		/>
	<path d="M258.3,197.8c-1.6-0.1-3.1-1.1-3.6-2.7c-0.4-1.2-0.7-2.4-1-3.6c-0.3-1.3,0.1-2.5,0.8-3.6c0.6-1.1,2.9-2.1,4.1-0.8
		c0.9,1,2,1.4,3.3,1.5c1.5,0.1,2.2,1.2,2.5,2.5C265.2,194.7,262.3,197.9,258.3,197.8z"/>
	<path d="M329.4,284.7c0.1-1.1,0.9-2.5,2.4-3.3c0.6-0.3,1.1-0.6,1.7-0.8c2.3-1,4.3-0.6,5.6,1c1.6,2.1,1.8,4.6,0.5,6.7
		c-1.3,2-3.6,2.9-5.8,2.2c-0.9-0.3-1.8-0.7-2.6-1.2C329.9,288.5,329.2,287,329.4,284.7z"/>
	<path d="M188,243c-0.1-2.7,2.3-5.4,4.9-5.5c2.9-0.2,6,2.3,6.1,4.9c0.1,3.1-2.5,6.1-5.5,6.1C190.5,248.5,188.1,246.1,188,243z"/>
	<path d="M525.7,331.7c-2.4-0.1-4.2-2-3.9-4.4c0.3-2.4,1-4.7,3.8-5.4c0.3-0.1,0.6-0.2,0.9-0.4c1.1-0.7,2.2-1.4,3.5-0.7
		c1.4,0.7,2.1,1.9,2.7,3.2c0.2,0.4,0.3,1,0.1,1.4C531.9,329.1,529.7,331.8,525.7,331.7z"/>
	<path d="M147.4,396.4c-2.8,0-5-2.3-5-5.3c0-3.4,2.1-5.6,5.2-5.6c2.9,0,5.7,2.5,5.8,5.3C153.5,393.7,150.7,396.4,147.4,396.4z"/>
	<path d="M554.8,617.9c0,2.9-2.4,5.6-4.9,5.5c-3.7-0.2-5.8-2.3-5.7-5.6c0.1-3.2,2.6-5.3,6.2-5.2
		C552.9,612.6,554.8,615.1,554.8,617.9z"/>
	<path d="M127.9,226.4c-0.2,0.5-0.3,1.2-0.7,1.6c-0.9,1.3-1.9,2.5-2.9,3.8c-1,1.3-2.4,1.5-3.9,1c-4.3-1.4-5.3-6-1.9-9.1
		c3.1-2.8,6.8-2.3,8.9,1.1C127.6,225.3,127.7,225.8,127.9,226.4z"/>
	<path d="M655.9,666.4c-3.3,0-5.4-2.1-5.4-5.4c0-3.5,1.9-5.6,5.2-5.5c3.3,0.1,5.6,2.2,5.6,5.3C661.2,664,659,666.4,655.9,666.4z"/>
	<path d="M188.3,297c0,3.2-2.6,5.5-6,5.5c-2.7-0.1-4.7-2.2-4.7-5c0-3.3,2.2-5.7,5.2-5.7C186,291.8,188.3,293.9,188.3,297z"/>
	<path d="M322.4,264.7c0,3.1-3,6.4-5.7,6.6c-3.2,0.2-6.8-3.6-5.1-6.7c0.7-1.3,1.3-2.5,2.7-3.3c2.1-1.2,5.9-0.4,7.4,1.6
		C322.1,263.5,322.3,264.3,322.4,264.7z"/>
	<path d="M218.2,234.9c-0.1,1.9-0.8,3.3-2.5,4.2c-1.8,1-3.6,1.2-5.5,0.5c-2.4-0.9-3.4-2.9-2.6-5.3c0.2-0.6,0.4-1.2,0.7-1.8
		c1.1-2.6,3.1-3.7,5.6-3.2C216.5,229.9,218.2,232.1,218.2,234.9z"/>
	<path d="M726.1,813.1c0.1,4.9-4,7.4-8,5.3c-1.8-1-2.7-2.7-2.4-4.7c0-0.3,0.1-0.6,0.2-0.9c0.6-4.3,4.1-4.8,7.2-4.1
		c1.1,0.2,2,1.1,2.4,2.2C725.8,811.6,726,812.6,726.1,813.1z"/>
	<path d="M735.3,730.3c-1-0.3-2.2-0.7-3.4-1c-0.3-0.1-0.5-0.3-0.8-0.5c-1.7-1.6-1.7-6.2,0-7.8c1.3-1.2,2.6-1.5,4.3-0.9
		c2.4,0.8,4.1,2.3,4.9,4.8c0.9,2.8-0.1,4.7-3,5.3C736.8,730,736.2,730.1,735.3,730.3z"/>
	<path d="M750.6,346.5c-0.1,2.2-0.9,3.5-2.2,4.1c-1.4,0.6-3,1.1-4.6,1.1c-2.6,0-4.5-2.6-3.4-4.9c0.6-1.3,1-2.6,1.7-3.9
		c0.3-0.7,0.8-1.4,1.4-1.8c2.1-1.6,3.9-1.4,5.2,0.9C749.5,343.5,750.1,345.3,750.6,346.5z"/>
	<path d="M339.8,341c0,2.4-1.7,4.6-4.1,5.2c-0.7,0.2-1.7,0.3-2.3-0.1c-2.2-1.1-3.6-3-4.4-5.3c-0.1-0.3,0-0.6,0-0.9
		c0.6-2.6,3.4-4.7,5.9-4.4C337.8,335.8,339.9,338.2,339.8,341z"/>
	<path d="M390.6,686.7c-0.5-0.4-1-0.8-1.5-1.2c-1.8-1.1-2.7-2.6-2.5-4.7c0.2-2.2,1.1-3.9,3-5.1c2-1.2,3.9-1.1,5.7,0.2
		c1.8,1.4,2.4,3.2,1.8,5.5c-0.3,1.1-0.9,2-2,2.5c-1.2,0.5-2.4,0.9-3.5,1.5C391.2,685.7,390.9,686.3,390.6,686.7L390.6,686.7z"/>
	<path d="M656.3,355.1c-3.5,0-5.4-1.7-5.6-4.5c-0.1-3.4,1.7-5.9,4.7-6.1c0.7-0.1,1.7,0.2,2.2,0.6c1.3,1.2,2.5,2.5,3.4,3.9
		c1.3,2.1,0,5.1-2.4,5.7C657.7,354.9,656.8,355,656.3,355.1z"/>
	<path d="M341.9,374.7c-0.6,0-0.8,0-1,0c-1.7-0.2-3.6-0.2-4.6-2c-1.1-2-0.7-4,0.4-5.9c1.2-2,3.3-2.6,5.3-2.5c2,0.1,3.4,1.7,4.1,3.5
		c0.8,1.9,0.4,3.7-1,5.3C344.2,374.3,342.9,374.7,341.9,374.7z"/>
	<path d="M349.2,272.7c-0.6,1.7-1.8,2.4-3.1,3c-2.8,1.3-6.6-0.2-6.6-3.7c0-0.5-0.1-0.9-0.2-1.4c-0.4-3.8,3.2-6.7,6.8-5.3
		c0.6,0.2,1.1,1,1.5,1.7c0.3,0.5,0.5,1.2,0.6,1.8C348.6,270.1,348.9,271.5,349.2,272.7z"/>
	<path d="M771.6,892.3c2.6-0.1,4.1,1.5,5.5,3.2c0.7,0.9,0.5,2.1-0.1,3.2c-1,1.9-2.7,3-4.6,3.9c-0.3,0.1-0.6,0.2-0.9,0.1
		c-2.2-0.2-4.6-2.3-5.2-4.4c-0.7-2.7,0.7-5.2,3.4-5.8C770.4,892.5,771,892.4,771.6,892.3z"/>
	<path d="M362.3,645.9c2.1,0,4.1,0.3,5.5,2.3c1.5,2.2,1.4,4.6-0.4,6.5c-0.2,0.2-0.5,0.4-0.7,0.6c-1.7,1.4-3.7,2.1-5.8,1.1
		c-2.2-1.1-3.1-3.1-3-5.6c0.1-1.2,0.4-2.2,1.3-3c1-0.8,2.1-1.4,3.2-2.1L362.3,645.9z"/>
	<path d="M391.8,752.9c-0.1,1.3-0.2,1.9-0.3,2.5c-0.3,1.5-1.5,2.5-3,2.5c-0.3,0-0.6,0-0.9,0c-4.2-0.7-4.6-0.7-4.9-4.8
		c-0.1-1.6-0.3-3.1,0.1-4.7c0.4-1.3,1.4-2,2.8-2C388.4,746.4,392.3,749.8,391.8,752.9z"/>
	<path d="M507.1,708.9c1.6,1,3.2,1.8,4.5,2.9c1.8,1.4,2.2,4.8,0.9,6.5c-1.9,2.7-5,3.2-7.5,1.4c-2.2-1.7-2.9-4.6-1.4-6.7
		C504.7,711.5,505.9,710.3,507.1,708.9z"/>
	<path d="M182.1,265c-3,0.3-7-3.7-4.5-7.2c0.2-0.3,0.4-0.5,0.5-0.8c1.1-2.9,3.2-3.3,6.2-1.7c0.4,0.2,0.8,0.5,1.2,0.8
		c1.8,1.5,2.5,3.6,1.8,5.5C186.6,263.6,184.6,265,182.1,265z"/>
	<path d="M168.2,307.3c-0.1-2.6,1.9-3.8,4.2-4.8c2.1-0.9,4-0.3,5.6,1.4c1.1,1.3,1.4,3.1,0.4,4.4c-0.8,1.2-1.8,2.2-2.9,3.2
		c-1.1,1-2.4,1.7-3.9,0.9C169.8,311.4,168.2,310.1,168.2,307.3z"/>
	<path d="M834.4,700c1.7,0.2,3.4,0.9,4.5,2.7c0.2,0.3,0.3,0.6,0.4,0.9c0.7,1.9,1,3.7-0.6,5.3c-1.6,1.6-3.4,1.5-5.3,0.6
		c-0.4-0.2-0.9-0.3-1.3-0.5c-2-1-2.8-2.5-2.4-4.7C830.1,702,832,700.1,834.4,700z"/>
	<path d="M203.2,168.7c0.1,3.2-2.6,6.2-5.8,6.3c-0.3,0-0.6-0.1-0.9-0.2c-2.1-0.7-3.8-3.5-3.6-5.6c0.2-2.2,1.9-3.8,4.5-4.2
		c0.6-0.1,1.3,0,1.9-0.1C201.7,164.8,202.9,166.1,203.2,168.7z"/>
	<path d="M331.3,263.8c-1.3-0.1-2.5-0.1-3.8-0.2c-1.3-0.1-2.2-1.4-2.1-2.7c0.3-3.3,3.1-6.4,6.3-7c0.3-0.1,0.6,0,0.9,0.1
		c3.1,1,4.4,5.8,2.4,8.4C334,263.5,332.8,264.1,331.3,263.8z"/>
	<path d="M813.2,677.8c-1.8-1.4-3.4-2.5-5-3.9c-1.1-1-0.9-2.6,0.4-3.1c1.7-0.7,3-1.6,3.3-3.6c0.2-1,1.3-1.3,2.3-1.1
		c1.5,0.3,2.6,1.2,3.2,2.6c1.4,3.2,0.6,6.1-2.4,8.3C814.6,677.2,814.1,677.4,813.2,677.8z"/>
	<path d="M830.5,794.3c-1.5-0.9-3.1-1.9-4.8-2.9c0.7-2.6,1.3-5.1,1.9-7.4c1.7-1,3.3-0.8,4.8,0c1.4,0.7,2.1,1.9,2.6,3.3
		c0.4,1.3,0.3,2.5-0.2,3.7C833.9,792.6,833.4,793,830.5,794.3z"/>
	<path d="M335.3,251.4c0.8-0.8,1.5-1.5,2.2-2c2.2-1.6,5.1-1.1,6.6,1.1c2.4,3.4,1.1,7.5-2.9,8.8c-1.2,0.4-2.2,0-2.8-1.1
		C337.5,256.1,336.5,253.9,335.3,251.4z"/>
	<path d="M610.3,657.3c0.1,1.8,0.4,3.6,0.3,5.3c-0.1,1.8-1.5,3-3.5,3.3c-1.7,0.3-3.8-0.5-4.6-1.8c-0.2-0.3-0.3-0.6-0.3-0.9
		c0-1.7,0-3.5,0.2-5.2c0.1-1.4,1.4-2.2,2.8-1.9C606.6,656.4,608.1,656.8,610.3,657.3z"/>
	<path d="M732.3,348.6c0.4,0-0.2,0-0.8-0.1c-2.3-0.5-3.4-2.7-2.3-4.7c0.7-1.4,1.6-2.7,2.4-4.1c0.9-1.6,3.4-1.9,4.4-0.5
		c1.1,1.7,2,3.6,2.7,5.4c0.2,0.5-0.2,1.6-0.6,2.1C736.9,348.2,735.2,348.7,732.3,348.6z"/>
	<path d="M607.4,651.7c-2.6,1-4.8,1.8-7,2.6c-1.1,0.4-2.2-0.2-2.6-1.4c-0.6-1.7-0.4-3.5,0-5.2c0.5-2.2,3.1-3.5,5.2-2.6
		c0.6,0.2,1.1,0.6,1.7,0.9C607.7,647.6,607.8,647.7,607.4,651.7z"/>
	<path d="M355.3,545.5c3.1-1.2,5.6-2.1,8.2-3.1c2.1,0.8,2.6,2.6,2.8,4.6c0.1,2-0.6,3.8-2.3,5c-1.2,0.8-2.5,0.9-3.5-0.1
		C358.7,550,356.9,548.2,355.3,545.5z"/>
	<path d="M182.7,351.9c-0.5-0.8-1-1.7-1.6-2.7c-0.5-0.8-1-1.6-1.7-2.6c1.1-1.5,2.1-3,3.2-4.5c0.7-0.9,1.6-0.9,2.6-0.6
		c2.8,1,4.6,4.1,3.9,6.8c-0.3,1-1,2-1.8,2.7C186.1,352.1,184.6,352.6,182.7,351.9z"/>
	<path d="M184.6,242.3c0.9,2.1,1.8,4,2.5,6c0.6,1.5-0.5,2.9-2.1,2.9c-1,0-1.9-0.2-2.9-0.2c-4,0.4-4.5-1.9-4.5-5.6
		c0-0.7,0.7-1.4,1.2-1.9C180.2,242.3,180.6,242.2,184.6,242.3z"/>
	<path d="M662.7,644.5c1.1,0.9,2.2,1.8,3.2,2.8c1.3,1.3,1.5,2.8,0.5,4.3c-0.6,0.9-1.3,1.8-2.1,2.5c-0.7,0.7-1.7,0.8-2.7,0.4
		c-0.8-0.4-1.6-1-2.4-1.4c-0.7-0.3-1.4-0.5-2-0.7C656.8,647.2,657.4,646.4,662.7,644.5z"/>
	<path d="M169.1,237.2c0.1,1.1,0.2,2.2,0.2,3.3c0,1-0.9,1.8-1.9,1.7c-2.2-0.1-4-0.8-5-3c-1-2.3-1.4-4.6,0.2-6.8
		c1.1-1.5,3-1.7,4.7-1.7c0.4,0,0.9,0.5,1,0.8c0.3,0.5,0.4,1.2,0.5,1.8c0.1,1.3,0,2.5,0,3.8C169,237.2,169.1,237.2,169.1,237.2z"/>
	<path d="M836.1,750.1c1.7-0.4,2.9-0.7,4.2-0.9c1.5-0.3,2.6,0.3,3.1,1.6c1.5,3.8-0.7,7.7-4.6,8.4c-0.5,0.1-1,0.1-1.4,0.1
		c-2.2,0.1-2.9-0.7-2.2-2.8c0.3-1.1,0.6-2.1,0.8-3.2C836.1,752.3,836.1,751.3,836.1,750.1z"/>
	<path d="M641.3,681.6c2.1,0.1,3.9,0.4,5.6,0.2c1.5-0.1,3-0.7,4.4-1.1c1.2,0.9,1.2,2.1,1,3.2c-0.2,1.3-0.7,2.4-1.6,3.4
		c-1.8,1.8-4,2.3-6.1,1.1c-1.1-0.6-2-1.5-2.7-2.5C641,684.7,640.7,683.3,641.3,681.6z"/>
	<path d="M785.2,661c-0.4,2-0.8,3.5-0.9,5.1c0,1.5,0.4,3.1,0.6,4.7c-1.6,1.4-3.2,1.1-4.8,0.4c-1.6-0.7-2.4-2.1-2.5-3.8
		c-0.1-1.9,0.1-3.9,1.7-5.3C780.9,660.7,782.7,660.5,785.2,661z"/>
	<path d="M653.4,669.1c2.8-0.8,5.1-0.8,6.6,1.6c1.6,2.4,1.5,4.6-0.1,6.6c-1.8,2.3-3.3,2.6-6.6,1.6c0.2-1.5,0.5-3.1,0.5-4.6
		C653.8,672.7,653.6,671.1,653.4,669.1z"/>
	<path d="M204.3,162.2c0.3-3,0.6-5.4,0.8-7.9c0.2-0.1,0.6-0.3,0.8-0.2c2.2,1.9,4.8,3,8,3c0.1,1.1,0.4,2,0.1,2.8
		c-0.7,2.1-2.4,3.3-4.5,3.8C207.6,164.2,205.8,163.8,204.3,162.2z"/>
	<path d="M640.1,667.1c-0.8-2.3-0.4-4.3,0.5-6.2c1-2,2.9-2.9,5.1-2.6c0.6,0.1,1.3,0.3,1.7,0.7c0.7,0.8,1.3,1.8,1.8,2.7
		c0.6,1.1,0.5,1.1,0.4,3.9C646.5,665.8,643.3,666.1,640.1,667.1z"/>
	<path d="M173.8,297.9c-1.3,0.8-2.4,0.3-3.5-0.5c-1-0.8-2-1.7-2.1-3c-0.1-1.4,0-2.9,0.4-4.2c0.6-1.7,2.1-2.7,4.3-3.1
		c1.1,0.8,2.3,1.7,3.7,2.7C175.7,292.6,174.7,295.3,173.8,297.9z"/>
	<path d="M657.6,368c-1.4-0.8-2.4-1.5-3.5-2.1c-2-1.2-2.4-3.5-0.6-5c1.2-1,2.6-1.8,4-2.7c1.3,0.9,2.7,1.6,4,2.5
		c1.5,1.1,1.6,3.4,0.2,4.6C660.3,366.3,658.8,367.1,657.6,368z"/>
	<path d="M626.8,633.8c0.8,0.7,1.6,1.3,2.2,1.9c1.7,1.6,1.8,3.3,0.2,4.9c-1.5,1.5-3.3,2.4-5.6,1.8c-2.5-0.7-4.1-2.1-4.4-5
		C621.7,636.3,624,635.1,626.8,633.8z"/>
	<path d="M458.3,327.5c1.8-2.1,3.9-2.4,5.9-3.4c0.7,0.8,1.4,1.4,1.8,2.2c0.7,1.4,1.2,2.9,1.9,4.4c0.9,1.8,0.1,2.9-1.5,3.9
		c-1.3,0.8-3,0.6-3.9-0.6C461,332,459.6,329.9,458.3,327.5z"/>
	<path d="M183.2,337.5c-1.6-2-3-3.7-4.4-5.5c1.1-1.6,2.1-3.2,3.1-4.7c0.7-1,1.8-1.1,2.9-0.5c2.4,1.3,3.5,3.8,2.7,6.4
		C187,335.2,185.7,336.7,183.2,337.5z"/>
	<path d="M743.3,706.3c1.3,2.8,1.4,5-0.5,7c-1.6,1.7-4.7,2.4-6.6,1.3c-0.9-0.5-1.8-1.3-2.4-2.2c-0.5-0.9-0.5-2-0.7-3.2
		c2-0.2,3.8-0.2,5.4-0.6C740,708.1,741.4,707.2,743.3,706.3z"/>
	<path d="M355.9,562.4c1.5-1.1,3-2.2,4.5-3.3c2.8,0.6,4.3,2.3,4.5,4.9c0.2,2.6-1.1,4.6-3.4,5.8c-0.7,0.4-1.8,0.2-2.1-0.5
		C358.2,567.1,357.1,564.8,355.9,562.4z"/>
	<path d="M812.4,652.4c2.6,0,4.4,1,5.5,3.2c0.7,1.3,0.6,2.1-0.9,3.2c-1.1,0.7-1.5,1.5-1.4,2.7c0,1.1-0.9,1.7-1.9,1.7
		c-0.9,0-1.9,0-2.8-0.4c-1.7-0.7-2.6-3-1.4-4.3C811.1,656.7,811.7,654.6,812.4,652.4z"/>
	<path d="M237.8,226.3c0.1,0.4,0.4,1.2,0.5,1.9c0.1,1.6-1.5,2.7-2.9,2c-0.8-0.5-1.5-1.2-2.4-1.6c-2.6-1-3-3-2.5-5.6
		c1-0.3,2.1-0.6,3-1.1c1-0.5,1.8-1.2,2.9-1.8c0.7,0.4,1.6,0.7,2,1.3c0.6,0.7,1.1,1.7,1.1,2.5C239.5,224.6,238.6,225.3,237.8,226.3z"
		/>
	<path d="M189.4,189.7c2,1.1,2.9,2.7,3.1,4.7c0.1,1.9-1.1,3.3-2.5,4.4c-2,1.7-5.1,1.3-6-1.2c-0.2-0.6-0.5-1.2-0.7-1.8
		C185.4,193.7,187.4,191.7,189.4,189.7z"/>
	<path d="M466.8,652c1.2,4,0.6,5.1-2.5,6c-0.8,0.2-1.5,0.4-2.3,0.5c-0.4,0.1-1,0-1.4-0.2c-1.8-1.1-3.2-2.6-3.6-4.8
		c-0.3-1.6,1-2.7,2.6-2.4c1.2,0.3,2.4,0.8,3.7,1C464.3,652.3,465.4,652.1,466.8,652z"/>
	<path d="M360.2,588.2c3.1-0.6,4-0.2,4.9,2.1c0.9,2.4,0.2,4.8-1.9,6.3c-0.7,0.5-1.7,0.9-2.7,1.4c-1-0.7-2-1.5-3-2.2
		C358.4,593.1,359.3,590.6,360.2,588.2z"/>
	<path d="M389.9,607.1c-0.6,1.4-0.4,3.1,0,4.8c0.3,1.3-1,2.5-2.3,2.3c-0.9-0.1-1.8-0.4-2.8-0.5c-0.9-0.1-1.9,0.6-2.7-0.3
		c-1-1.2-0.2-2.4,0.2-3.6c0.8-2.5,3-3.6,4.9-5c1.1-0.8,2.7,0.1,2.7,1.5C389.9,606.5,389.9,606.7,389.9,607.1z"/>
	<path d="M235.7,210.7c0.5,2.1,0.1,4,0.3,5.8c-2.5,0.6-4.6,1.2-6.9,1.8c-1.5-0.8-2.2-2.1-1.9-3.9c0.4-1.8,1.2-3.3,3.1-4
		C232,209.8,233.7,209.7,235.7,210.7z"/>
	<path d="M663.5,334.5c-1.4,0.6-2.7,1.2-4.1,1.6c-0.9,0.3-1.6-0.1-2.1-0.8c-2.9-3.6-1-8.6,3.6-9.5c0.2,0,0.6,0.2,0.8,0.4
		C662.3,328.8,662.8,331.4,663.5,334.5z"/>
	<path d="M740.2,704.2c-3.3,2.6-3.9,2.6-8.2,0.4c-2,0.8-4,2.7-6.5,0.6c1.3-2.6,2.5-5.3,3.8-7.9c1.5,0.1,1.5,1.5,1.9,2.4
		c0.9,1.8,2.3,3,4.3,3.4C737,703.3,738.3,703.7,740.2,704.2z"/>
	<path d="M684.6,312.7c-1.4-0.9-2.7-1.8-4-2.7c-1.3-0.9-1.3-2.6,0-3.6c2.1-1.6,4.5-2.3,7.1-1.8c0.8,0.1,1.4,1,1.3,1.7
		C688.7,309.1,688.2,311.7,684.6,312.7z"/>
	<path d="M827.9,773.8c1.6-0.2,3.1-0.3,4.5-0.5c1.9-0.2,2.7,0.6,2.7,2.4c0,1.3-0.4,2.6-1.3,3.5c-0.5,0.5-1.3,1.1-2,1.2
		c-2,0.1-4.1,0.3-6.3-0.5C825.6,777.5,827.4,776,827.9,773.8z"/>
	<path d="M882.2,661.7c2,0,2.8,0.9,3.3,2.2c0.4,0.9,0.4,1.8-0.3,2.6c-1,1.2-2,2.4-3.3,3.8c-0.8-0.1-1.9-0.1-2.9-0.3
		c-1.6-0.4-2.6-1.9-2.4-3.6c0.1-0.5,0.5-1.4,1-1.5C879.6,664.4,881.1,663,882.2,661.7z"/>
	<path d="M898.5,700c3-0.9,5.8-1.7,8.7-2.6c1.3,1.2,1.3,1.2,1.9,3.1c-1,1.1-2.1,2.2-3.2,3.3c-1.4,1.4-3.1,1.5-4.9,0.7
		C899,703.7,898.2,702.2,898.5,700z"/>
	<path d="M425.2,689.2c-0.1,1.4,0,2.9-0.3,4.2c-0.6,2.4-3.6,3.6-5.8,2.4c-0.4-0.2-0.8-0.6-0.9-1c-1.9-5.1-0.4-6.5,4.3-7
		c1.2-0.2,2.1,0.6,2.8,1.5L425.2,689.2z"/>
	<path d="M180.4,224.4c0.1-1.5,0.2-3.3,0.3-5.2c1.6-0.3,3.1-0.6,4.6-0.8c1.4-0.2,2.4,0.5,2.7,2c0.2,0.9,0.3,1.9,0.2,2.8
		c-0.3,2.4-1.6,3.5-3.8,2.8c-1.2-0.4-2.4-0.7-3.5-1C180.7,224.9,180.6,224.7,180.4,224.4z"/>
	<path d="M693.8,652.8c1.2,0.8,2.3,1.3,3.2,2.2c0.5,0.5,0.8,1.5,0.6,2.1c-0.7,3.5-4.7,5.3-7.8,3.6c-1.2-0.7-1.7-2.1-0.9-3.2
		C690.1,655.7,691.4,654.1,693.8,652.8z"/>
	<path d="M698.2,672.2c-1.7-1.5-3-2.5-4-3.6c-1.3-1.4-1.1-2.9,0.4-4.1c1-0.8,1.9-1.6,2.9-2.4c0.9-0.7,1.9-0.7,2.6-0.1
		c0.9,0.7,1.8,1.7,1.4,2.8C700.7,667.1,699.5,669.3,698.2,672.2z"/>
	<path d="M645.7,648.8c2.5,0.2,4.5,0.4,6.5,0.6c1.3,2.6,1.3,2.9-0.2,4.1c-0.4,0.3-0.8,0.5-1.2,0.8c-1.6,1.5-3.3,1.5-5.2,0.7
		c-1.9-0.8-2.4-1.8-1.4-3.6C644.6,650.5,645.1,649.7,645.7,648.8z"/>
	<path d="M834,696.7c-1.4,0.7-2.8,1.3-4.4,2c-0.6-1.6-1.1-2.8-1.7-4.1c-0.6-1.1-1.3-2.1-2-3.3c2-1.8,4.1-1.8,6.2-0.7
		C834.6,691.8,833.8,694.3,834,696.7z"/>
	<path d="M647,632.8c-1.6,1.9-3.2,3.8-5.1,5.9c-1.5-0.3-3.1-0.8-4.7-1.6c1.4-2,3-3.8,4.1-5.8c1-1.9,2.2-1.7,3.4-1.1
		c0.5,0.3,1.1,0.7,1.5,1.2C646.5,631.7,646.7,632.2,647,632.8z"/>
	<path d="M579.3,399.2c-0.5-0.2-1.4-0.4-2.3-0.8c-1.6-0.6-1.9-1.7-0.9-3c1-1.2,2-2.5,3-3.7c1-1.2,2.1-1.2,3.3-0.2
		c1.5,1.4,2.1,2.8,1.5,4.2C583.3,397.6,581.3,399.2,579.3,399.2z"/>
	<path d="M181.9,268.1c2.3-0.8,4.1-0.8,5.4,1.2c1.4,2.2,1.3,4.5-0.6,6.7c-2-0.3-3.8-1.4-5.9-1.8C181.2,272,181.6,270.2,181.9,268.1z
		"/>
	<path d="M652.4,689.7c1-2.4,1.9-4.7,2.9-7.4c0.4-0.1,1.1-0.4,1.9-0.4c1.4,0,2,0.6,2.3,1.9c0.1,0.3,0.1,0.6,0.1,0.9
		c0.1,1.9,0.4,3.9-1.4,5.2C656.2,691.2,654.3,690.7,652.4,689.7z"/>
	<path d="M358.5,609.3c0.3-0.6,0.4-1,0.6-1.2c2.2-2.3,3.9-2.2,5.7,0.2c1.5,2.1,1.4,5-0.1,7c-0.7,0.8-2.1,0.9-2.3,0
		C361.8,612.9,360.3,611.1,358.5,609.3z"/>
	<path d="M865.8,770.4c-0.1-2.3,1.4-3.9,3.3-5.1c0.3-0.2,1-0.2,1.3,0c0.3,0.2,0.6,0.8,0.5,1.1c-0.5,2.4-0.4,4.7,0.5,7
		c0.1,0.3,0.1,0.6,0.1,0.9c0.1,1-0.9,1.9-1.8,1.6C867.3,775.1,865.9,773.2,865.8,770.4z"/>
	<path d="M362.1,527.6c-1-2.5-1.8-4.4-2.5-6.3c-0.4-1,0.1-1.9,0.7-2.6c0.6-0.6,1.7-0.7,2.6,0c1.2,0.8,2.3,1.7,3.3,2.7
		c0.8,0.8,0.7,2.2-0.3,3C364.8,525.4,363.6,526.4,362.1,527.6z"/>
	<path d="M220.5,231.3c2.3-0.6,4-1.1,5.7-1.3c0.4-0.1,1,0.6,1.4,1c0.2,0.2,0.2,0.6,0.2,0.9c0,1.7-0.6,3.1-1.8,4.3
		c-1.5,1.4-2,1.6-4.9,1.4C220.1,235.8,220.9,233.7,220.5,231.3z"/>
	<path d="M781.7,656.7c0.9-2.3,2.7-3.3,5.1-3.3c2.1,0,3.6,0.9,4.7,2.6c0.6,0.9,0.3,1.8-0.6,2.4c-1.4,0.8-2.8,1.3-4.5,0.6
		c-1.4-0.6-2.9-1.2-4.3-1.8C781.9,657.2,781.9,657,781.7,656.7z"/>
	<path d="M872,734.2c1.2,1.5,2.3,2.8,3.6,4.4c-1.5,1.5-2.9,2.9-4.5,4.4c-2.5-0.8-3.9-2.3-4.2-5.1C868.6,736.7,870.2,735.5,872,734.2
		z"/>
	<path d="M597.3,659.3c0.8,4.2,2.8,6.9,5.4,9.4c-1.6,1.5-3,1.4-4.6,0.7c-1.5-0.7-2.7-1.7-2.7-3.6
		C595.5,663.8,594.9,661.6,597.3,659.3z"/>
	<path d="M878.3,793.1c1.5-0.5,3.1-1.1,4.8-1.6c0.3-0.1,0.6,0,1,0c0.2,0.3,0.6,0.7,0.6,1.1c0.1,3.3-1.7,5.5-4.8,6
		c-1.9,0.3-3-0.8-2.6-2.7c0.1-0.6,0.3-1.2,0.5-1.8C877.9,793.8,878.1,793.5,878.3,793.1z"/>
	<path d="M135.8,226.3c-1.7,0.2-2.9,0.4-4.2,0.4c-1.5,0-2.2-0.7-2.5-2.3c-0.4-2.2,0.1-3.5,1.4-4.2c1.3-0.7,3.2,0.1,4.4,2
		c0.3,0.5,0.6,1.1,0.7,1.8C135.7,224.5,135.7,225.1,135.8,226.3z"/>
	<path d="M544.7,684.8c0,1.5-1.2,2.6-2.5,2.3c-1.4-0.3-2.8-0.7-4.1-1.3c-1.6-0.6-2.1-2.4-1.2-4c0.4-0.8,1.2-1.2,2-1.1
		c2,0.4,3.9,1.4,5.4,2.8C544.5,684,544.6,684.5,544.7,684.8z"/>
	<path d="M858.9,735.1c-1.5,0.4-2.5,0.8-3.5,0.9c-0.7,0.1-1.4-0.3-2.2-0.5c0.2-2.4,0.4-4.6,0.7-7c0.7-0.2,1.6-0.4,2.7-0.7
		C857.3,730.1,858,732.3,858.9,735.1z"/>
	<path d="M188.3,183c1.6-1.1,3.1-2.1,4.5-3.1c1.3,0.3,1.6,1.2,1.7,2.1c0.1,1.1,0.1,2.2-0.1,3.2c-0.6,2.2-2.4,2.7-4.3,1.3
		C189.1,185.8,188.3,184.9,188.3,183z"/>
	<path d="M368.2,529c1.7,2,1.9,3.8,1.4,5.8c-0.4,1.5-0.8,1.9-3.4,3.1c-0.7-2.3-1.3-4.5-2.1-6.9C365.5,530.3,366.7,529.7,368.2,529z"
		/>
	<path d="M97.4,384.8c-1,1.1-1.7,1.9-2.3,2.7c-0.6,0.9-1.1,1.9-1.7,2.7c-2.1,0.7-3.1-0.5-4-1.9c-0.7-1.1-1-2.4-0.1-3.5
		c0.3-0.4,1.3-0.9,1.5-0.8c1.7,1.7,3.5,0.7,5.3,0.5C96.3,384.4,96.4,384.5,97.4,384.8z"/>
	<path d="M695.4,304.9c0.8-0.4,1.2-0.7,1.3-0.7c1.3,0.5,2.7,1,3.9,1.7c1.3,0.7,1.6,2.6,0.6,3.8c-1.1,1.3-2.1,2.8-4,3.8
		c-0.2-0.6-0.7-1.2-0.6-1.6C697.4,309.3,697.7,306.9,695.4,304.9z"/>
	<path d="M339.4,245.3c-0.5-2.1-0.8-3.6-1.2-5.3c1-1.3,2.6-1.6,4.1-2.5c0.4,0.4,1,0.7,1.2,1.2c0.7,1.3,0.6,2.8-0.1,4.1
		c-0.4,0.8-1,1.7-1.7,2.2C341.3,245.4,340.4,245.2,339.4,245.3z"/>
	<path d="M662.4,686.9c-0.5-2.6-0.9-4.7-1.4-7.3c-0.1,0.2,0-0.2,0.2-0.4c2.2-2.1,3.4-1.9,4.5,0.7c0.5,1.2,0.6,2.5,0.2,3.7
		C665.5,685,664.9,685.5,662.4,686.9z"/>
	<path d="M931.2,679.4c-1.9-0.3-3.2-1.5-4.7-2.1c0.1-4.1,0.9-4.9,5.1-5.4c0.7,1.3-0.5,2.4-0.4,3.6
		C931.2,676.7,931.2,677.9,931.2,679.4z"/>
	<path d="M173.6,278.2c-0.4,2-0.6,3.7-1.1,5.3c-0.2,0.9-1,1.2-1.9,1.2c-1,0-1.9-0.6-2.2-1.5c-0.5-1.8-0.2-3.4,0.7-5.3
		C170.6,278,171.9,278.1,173.6,278.2z"/>
	<path d="M381.5,619c-0.3,2.6-0.5,4.4-0.8,6.1c0,0.3-0.7,0.5-1.1,0.6c-0.2,0.1-0.7-0.1-0.8-0.3c-0.8-1.9-1.7-3.8-1.5-5.9
		c0.1-1.1,1.3-1.9,2.4-1.9C380.8,617.6,381.6,618.6,381.5,619z"/>
	<path d="M346.7,258.2c1.6,1.3,2.5,2.5,1.9,4.4c-2.1,0.7-4.1-1-6.1,0c-1.8,0.9-3.7,1.5-5.7,2.3c0.8-2.6,0.8-2.8,2.3-3
		C342.1,261.4,344.7,260.5,346.7,258.2z"/>
	<path d="M394.9,610.3c3.1,0.8,3.6,1.3,3.5,3.5c0,0.8-0.2,1.6-0.4,2.3c-0.3,1.1-1.4,1.5-2.2,0.8c-1-0.8-1.9-1.7-2.9-2.6
		C393.1,612.8,394.2,611.6,394.9,610.3z"/>
	<path d="M444.2,661.7c-6.1-3-5.4-3.3-12.7-2.2c0.4-0.7,0.5-1.3,0.9-1.6c2.1-1.4,4.5-1.2,6.9-0.7C441.4,657.6,443,658.8,444.2,661.7
		z"/>
	<path d="M262.5,378.6c0.6,0.3,1.6,0.7,2.5,1.1c0.2,0.1,0.4,0.6,0.3,0.8c0,0.3-0.3,0.5-0.5,0.7c-0.1,0.1-0.3,0.2-0.4,0.2
		c-2.4,0-4.7,0.5-6.9,1.6c-0.4,0.2-1.1-0.2-1.7-0.4c0.2-0.6,0.3-1.2,0.6-1.6C257.9,379.3,259.9,378.7,262.5,378.6z"/>
	<path d="M175,213.4c-2.1,0.5-3.6,0.2-5-0.5c-0.9-1.1-0.3-2.2,0-3.2c0.2-0.8,0.6-1.5,1.5-1.6c1.2-0.2,2.9,0.8,3.1,1.8
		C174.8,210.9,174.8,212,175,213.4z"/>
	<path d="M846.1,749c-2.6-1.9-2.6-1.9-1.8-4.2c0.5-1.3,0.9-2.6,1.5-4.2c1.9,0.9,2.2,2.4,2.4,3.9C848.4,746.4,847.7,748,846.1,749z"
		/>
	<path d="M654.5,634c0.5-1.2,1.3-1.1,2.1-0.9c1,0.2,2,0.6,2.3,1.5c0.6,1.8,0.9,3.7,1.3,5.5c0,0.2-0.4,0.5-0.6,0.6
		c-0.3,0.1-0.6-0.1-0.9-0.2c-0.1,0-0.2-0.2-0.3-0.3c-0.5-1.1-1-2.4-1.6-3.4C656.1,635.7,655.2,634.9,654.5,634z"/>
	<path d="M545.2,391.7c1.7,1.1,3.5,2.1,5.1,3.3c0.4,0.3,0.6,1.2,0.4,1.7c-0.2,0.5-0.9,1-1.3,1c-3.1-0.1-4.8-2-4.9-5.2
		C544.4,392.3,544.8,392.1,545.2,391.7z"/>
	<path d="M741.7,685.1c0.6-2.5,2.1-3.4,4.2-4c2,1.7,4,3.4,6.1,5.2c-1.5,0.6-2.2-0.7-3.2-0.9c-1.2-0.2-2.4-0.5-3.7-0.6
		C744.1,684.7,743,684.9,741.7,685.1z"/>
	<path d="M404.2,535.7c-0.2,1.1-0.3,2.1-0.6,2.9c-0.5,1.2-1.7,1.6-2.7,0.8c-0.8-0.6-1.6-1.5-2.1-2.4c-0.7-1.3,0.3-2.7,1.7-2.4
		C401.7,534.8,402.8,535.3,404.2,535.7z"/>
	<path d="M189.8,165.5c0.2,0.9,0.1,2.1-0.7,1.9c-2.7-0.6-5.3-0.3-7.7,0.6c-0.7-1.2,0.1-1.7,0.6-2.2c0.9-0.9,2.1-1.5,3.4-1.4
		C186.9,164.5,188.5,164.5,189.8,165.5z"/>
	<path d="M530.7,681.5c-1.3-0.9-0.9-1.8-0.6-2.7c0.3-1.3,1.2-2.3,2.4-2.8c1.4-0.6,2.9-1.2,4.5-0.8c0.1,0.2,0.2,0.3,0.2,0.4
		c0,0.1,0,0.3-0.1,0.4c-1.4,1.1-2.8,2.1-4.1,3.2C532.1,680,531.4,680.8,530.7,681.5z"/>
	<path d="M368.1,639.5c-0.7-1.5-1.3-2.8-2.1-4.5c1.7,0.2,2.9,0.4,4.1,0.4c1.1,0,2.2-0.4,3.3-0.6c0.2,0,0.7,0.3,0.7,0.5
		c0,0.4-0.1,1-0.4,1.2C371.9,637.5,370.1,638.4,368.1,639.5z"/>
	<path d="M526.6,705.3c0.6-2.2,1.8-3.5,3-4.7c0.7-0.7,1.7-0.7,2.6,0c0.8,0.6,0.8,1.6,0.2,2.5C531.1,704.9,529.4,705.7,526.6,705.3z"
		/>
	<path d="M493.8,526.4c1.8,0,3.2,1.4,3.1,2.9c-0.1,1.1-1.2,2.1-2.2,2.1c-1.8-0.2-3.2-1.5-3.1-2.9
		C491.6,527.5,492.8,526.4,493.8,526.4z"/>
	<path d="M213.7,225.9c-0.8,0.1-1.3,0.2-1.9,0.3c-0.8,0-1.5,0-2.5,0c-0.3-2.4,0.8-4,2.2-5.4c0.4-0.4,1.4-0.1,1.5,0.4
		C213.2,222.7,213.4,224.3,213.7,225.9z"/>
	<path d="M348.9,586.9c0.9,0.5,1.7,0.8,2.1,1.4c0.5,0.7,0.8,1.7,1.1,2.6c0.2,0.7-0.6,1.6-1.3,1.6c-2.1-0.2-3.6-1.7-3.3-3.8
		C347.6,588,348.4,587.5,348.9,586.9z"/>
	<path d="M886.5,656c1.1,1.1,1.1,2.2,0.3,3.4c-0.3,0.1-0.7,0.3-0.9,0.2c-1.7-0.5-3.3-1-4.9-1.6c-0.3-0.1-0.6-0.8-0.6-1.1
		c0.1-0.3,0.6-0.8,0.9-0.8C883,655.9,884.7,656,886.5,656z"/>
	<path d="M612.1,654.1c-1.1,0-1.9-0.5-1.8-1.7c0.1-1.7,0.5-3.4,0.7-5.2c1.3-0.1,1.6,1,1.9,1.8C613.4,650.8,613.3,651.1,612.1,654.1z
		"/>
	<path d="M257.3,179.9c-1.1-1.6-1-2.8-0.3-3.9c0.5-0.9,1.4-1.3,2.4-1.2c0.5,0.1,1.1,0.5,1.4,0.9c0.2,0.2,0,0.9-0.2,1.3
		C259.9,178.1,258.8,179,257.3,179.9z"/>
	<path d="M362.7,622.7c-1.9-1.3-2.1-2.3-0.6-3.1c1.5-0.8,3.1-1.6,4.6-2.3c0.2-0.1,0.6,0.2,0.7,0.4c0.2,0.2,0.2,0.6,0.2,0.9
		c-0.1,0.3-0.3,0.6-0.5,0.8C365.7,620.5,364.1,621.6,362.7,622.7z"/>
	<path d="M188.7,227.8c1.3-0.3,2.1-0.4,3.3-0.7c-0.2,2.6-0.2,4.8-0.7,7c-0.4,0-0.7,0.1-0.7,0C190,232.2,189.4,230.3,188.7,227.8z"/>
	<path d="M515.2,677.6c1.3-0.1,2.5,0.8,2.8,2c0.2,1.1-1,2.4-2.3,2.5c-1.2,0.1-2.4-1.1-2.5-2.3C513.2,678.7,514.2,677.6,515.2,677.6z
		"/>
	<path d="M484.3,808.4c0,1.1-0.9,2.2-1.9,2.4c-1.1,0.1-2.2-0.9-2.2-2c0-1.4,1-2.7,2.1-2.7C483.4,806.1,484.3,807.3,484.3,808.4z"/>
	<path d="M880.6,761.6c0.7-1.8,1.1-3,1.6-4.4c2.3,1.9,2.5,2.3,2.2,5.7C883.2,762.5,882.1,762.1,880.6,761.6z"/>
	<path d="M173.8,257.3c0,1.1,0,2,0,2.9c0,0.3-0.3,0.7-0.5,0.7c-1.1,0.1-2.2,0.2-3.2,0.1c-1-0.1-1.5-1-2-2.1
		C170,258.3,171.7,257.8,173.8,257.3z"/>
	<path d="M872.3,719.8c1.6,3.3,1.6,3.3,1.3,5.3c-1.4-0.3-1.8-1.7-2.8-2.4c-0.9-0.7-1.7-1.3-2.5-2c0.1-0.3,0.1-0.6,0.1-0.6
		C869.6,720,870.9,719.9,872.3,719.8z"/>
	<path d="M485.9,786.8c-2.1-0.3-2.8-1.2-3.2-2.5c-0.3-1.1,0.4-2.3,1.5-2.5c1.2-0.3,2.4,0.6,2.3,1.7
		C486.4,784.5,486.1,785.6,485.9,786.8z"/>
	<path d="M871.7,779.5c-0.6,2.2-1,3.6-1.4,5.3c-0.8,0-1.4,0.1-1.9,0c-0.4-0.1-0.8-0.3-1.1-0.5c-0.1-0.3-0.3-0.5-0.2-0.6
		C867.7,781.7,868.8,780.1,871.7,779.5z"/>
	<path d="M526.9,549.4c0.1,1-1,2.2-2,2.2c-1.2,0-2.4-1.1-2.5-2.3c-0.1-0.9,0.8-1.8,1.8-1.9C525.4,547.4,526.8,548.3,526.9,549.4z"/>
	<path d="M530,535.2c0,1.2-1,2.2-2.1,2.2c-1.1,0-2.2-1-2.2-2.1c-0.1-1.1,1-2.1,2.1-2.2C529,533.2,530,534.2,530,535.2z"/>
	<path d="M496.8,874.2c0,0.9-1.2,2-2.3,2.1c-1,0-2.1-1.1-2.1-2.2c0-1.1,1.2-2.2,2.2-2.1C495.6,872.1,496.8,873.3,496.8,874.2z"/>
	<path d="M601.4,630.6c-0.3,1-1.6,1.8-2.6,1.5c-1-0.2-1.7-1.5-1.5-2.6c0.2-1.1,1.4-1.8,2.5-1.5C600.9,628.3,601.7,629.6,601.4,630.6
		z"/>
	<path d="M530.5,505.3c0.1,0.9-1,2-2.1,2.1c-1.1,0.1-2.2-0.7-2.4-1.8c-0.2-1.1,0.6-2.2,1.7-2.4C529,503.2,530.4,504.2,530.5,505.3z"
		/>
	<path d="M511.4,990.6c0.2,1-1.1,2.4-2.3,2.5c-0.9,0.1-2-1.1-2.1-2.1c-0.1-0.8,0.7-1.9,1.5-2.1C509.7,988.5,511.2,989.4,511.4,990.6
		z"/>
	<path d="M506.7,751.4c0,1-1,2-2.2,2.1c-1.1,0-2.2-0.9-2.2-2c-0.1-1.1,1-2.1,2.1-2.1C505.6,749.4,506.6,750.3,506.7,751.4z"/>
	<path d="M621.5,910.4c-1.2,0-2.1-0.8-2.2-2c-0.1-1.2,0.9-2.1,2.1-2.1c1.2,0.1,2.1,1,2,2.2C623.2,909.5,622.4,910.3,621.5,910.4z"/>
	<path d="M847.4,688.3c-0.8-0.8-1.4-1.2-1.8-1.9c-0.2-0.3-0.3-1-0.1-1.3c0.9-1.5,2.2-2.7,4.1-2.7c0.1,0.4,0.3,0.8,0.2,1
		C849.2,684.9,848.4,686.4,847.4,688.3z"/>
	<path d="M451.5,672c1.3,1.6,1.6,3,1.1,4.6c-0.5,1.4-1,2.9-2.8,3.2c-0.2-0.4-0.5-0.7-0.4-0.9C450,676.7,450.7,674.6,451.5,672z"/>
	<path d="M535.2,930.2c-1.1,0.1-2.1-0.8-2.2-2c-0.1-1,0.6-2,1.4-2.2c1.2-0.3,2.6,0.7,2.8,1.9C537.4,929,536.4,930.1,535.2,930.2z"/>
	<path d="M456.7,395.4c-0.8-1.5-1.3-2.2-1.7-2.9c0.3-0.5,0.5-0.9,0.7-0.9c1.4-0.4,2.8-1.6,4.4-0.9
		C460.6,393.1,458.1,393.3,456.7,395.4z"/>
	<path d="M581.7,553.7c-1,0.1-2.1-0.9-2.2-2c-0.1-1.1,0.9-2.2,1.9-2.3c1.1-0.1,2.1,0.9,2.2,2C583.7,552.5,582.7,553.6,581.7,553.7z"
		/>
	<path d="M591.6,662.3c-0.6-2.7,0.4-4.5,2.3-5.9c0.6-0.5,1.3-0.9,2.1,0.1c-0.7,1-1.4,2-2.2,3C593.1,660.3,592.9,661.5,591.6,662.3z"
		/>
	<path d="M129.1,134.9c1.1-0.8,2.1-0.1,3.2,0c1.1,0.1,2.2-0.7,3.2,0.1C133.3,137.7,130.7,137.7,129.1,134.9z"/>
	<path d="M133.8,242.6c1.7-1.1,2.8-1.9,4.1-2.5c0.4-0.2,1.2,0.2,1.6,0.6c0.5,0.5,0.3,1.2-0.2,1.6c-1.1,0.9-2.4,1.4-3.9,1.2
		C134.9,243.5,134.6,243.1,133.8,242.6z"/>
	<path d="M554.8,744.9c-0.1,0.3-0.2,0.8-0.5,1.1c-0.3,0.3-0.7,0.6-1.2,0.7c-1.2,0.5-2.3,0.1-2.8-0.8c-0.5-1,0-2.2,1.1-2.6
		c1.4-0.5,2.7-0.1,3.2,1.1C554.7,744.4,554.7,744.6,554.8,744.9z"/>
	<path d="M796.6,985.6c-0.2,1.6-1.1,2.6-2.5,2.9c-0.8,0.2-1.7-0.6-1.6-1.2c0.2-1.8,2.1-3.1,3.7-2.4
		C796.4,984.9,796.5,985.3,796.6,985.6z"/>
	<path d="M490.6,552.5c1.2,0.1,2,1.1,1.8,2.2c-0.2,1.1-1.3,1.9-2.4,1.8c-1-0.2-1.8-1.4-1.5-2.5C488.8,553.1,489.7,552.4,490.6,552.5
		z"/>
	<path d="M659.1,308.7c0.3-2.2,1.3-3.6,3.5-4.3C663.3,308.3,662.5,309.2,659.1,308.7z"/>
	<path d="M741.3,338.6c-3-2.2-3.3-3-2.3-5.3c0.1-0.2,0.5-0.4,0.8-0.4c0.3,0,0.7,0.2,0.8,0.4C740.8,334.8,741,336.4,741.3,338.6z"/>
	<path d="M918.1,684.9c-2-0.5-2-0.5-3.5-1.6c0.9-1.4,2.7-0.8,3.6-1.8c0.2,0.1,0.4,0.2,0.4,0.2C918.5,682.8,918.3,683.8,918.1,684.9z
		"/>
	<path d="M492.9,571c-1.2,0.1-2.1-0.8-2.1-2c0-1,0.8-1.8,1.8-1.9c1.2-0.1,2.2,0.8,2.1,2C494.6,570.1,493.9,570.9,492.9,571z"/>
	<path d="M210.7,243.3c-3.2-0.2-4.8-1-5.9-2.8c-0.1-0.2,0-0.7,0.2-0.8c0.2-0.2,0.7-0.3,0.8-0.2C207.2,240.5,208.5,241.5,210.7,243.3
		z"/>
	<path d="M862.5,797.8c1.2,0.9,2.3,1.5,3.1,2.3c0.6,0.6,0.4,1.5-0.2,2.1c-0.5,0.5-1.1,0.7-1.6,0.2
		C862.7,801.2,861.9,799.9,862.5,797.8z"/>
	<path d="M258.6,167c1-0.1,1.9,0.7,1.9,1.7c0,1-0.7,1.9-1.7,1.9c-0.8,0-1.4-0.6-1.6-1.5C257.1,168.1,257.7,167.1,258.6,167z"/>
	<path d="M408.7,585.9c0.7,1.5-0.3,2-1,2.5c-0.6,0.4-1.4,0.8-2.1,0.7c-0.4,0-0.9-0.8-1.1-1.3c-0.1-0.2,0.4-0.9,0.7-1
		C406.4,586.4,407.6,586.1,408.7,585.9z"/>
	<path d="M654,341.1c-0.4-1.3,0.4-2.1,1.2-2.8c0.3-0.3,1-0.4,1.3-0.2c0.4,0.3,0.9,0.9,0.9,1.4C657.3,341.2,656.4,341.6,654,341.1z"
		/>
	<path d="M182.1,305.2c1.5-0.4,3.1-0.9,4.8-1.4c-0.9,2.2-1.5,2.7-3.7,2.9C182.5,306.7,182.1,306.2,182.1,305.2z"/>
	<path d="M755.8,687c0.8,2.1,0.8,3.4,0,4.7c-0.2,0.3-0.8,0.5-1.2,0.4c-0.3-0.1-0.7-0.7-0.7-1C754.1,689.7,754.5,688.5,755.8,687z"/>
	<path d="M146.8,243c0.2,0.5,0.6,1,0.7,1.6c0.3,1,0.5,2,0.8,3.3c-2.5-1.6-3-2.5-2.6-4.5C145.9,243.2,146.4,243.2,146.8,243z"/>
	<path d="M185,202.1c3.1-0.2,3.2-0.2,3.9,2.1C186.9,204.3,186.9,204.3,185,202.1z"/>
	<path d="M172.5,315.7c-2.1,1.1-2.4,0.9-5-2.4c0.2-0.1,0.5-0.4,0.6-0.4C169.6,313.8,171,314.7,172.5,315.7z"/>
	<path d="M858.7,712.7c1.3,0,2.1-0.2,2.4,0c1.2,1.2,1.7,2.8,2,5.5C861.4,716.1,860.4,714.8,858.7,712.7z"/>
	<path d="M347,582.2c0.4-1.9,1.6-2.8,3.2-3c0.2,0,0.7,0.2,0.7,0.4c0.1,0.4,0.1,1.1-0.1,1.2C349.6,581.3,348.3,581.7,347,582.2z"/>
	<path d="M482.4,752.3c0.1-0.7,0.1-1.2,0.3-1.6c0.3-0.9,1-1.2,1.8-0.8c0.5,0.2,1,0.9,1,1.3c-0.1,0.4-0.7,1-1.2,1.1
		C483.7,752.5,483.1,752.3,482.4,752.3z"/>
	<path d="M671.8,628.2c0.3-0.8,0.9-0.9,1.6-0.8c0.7,0.1,1.2,0.4,1.1,1.2c-0.1,0.4-0.4,0.9-0.7,1c-0.3,0.1-0.9-0.1-1.2-0.4
		C672.2,629,672,628.5,671.8,628.2z"/>
	<path d="M336.5,349c0.5-1.5,1.8-1.5,2.7-1.9c0.2-0.1,1,0.2,1.1,0.5c0.1,0.4-0.1,1-0.3,1.3C338.9,350,337.7,349.3,336.5,349z"/>
	<path d="M414.9,561.2c-0.7,1.6-1.1,2.4-1.5,3.1c-1.6,0-2-1-1.7-2C411.9,561.2,413.1,561.4,414.9,561.2z"/>
	<path d="M441.1,353c0.2,0.2,0.5,0.4,0.5,0.7c0.1,1.2-0.4,2.2-1.5,2.7c-0.1,0.1-0.7-0.2-0.7-0.4c-0.2-1.2,0.1-2.2,1.2-2.9
		C440.7,353,440.9,353,441.1,353z"/>
	<path d="M567.9,398.9c0.8-0.3,1.6-0.6,2.5-0.8c0.3-0.1,0.7,0.4,1,0.6c-0.2,0.4-0.4,0.9-0.7,1c-0.8,0.2-1.7,0.1-2.6,0.2
		C568,399.6,568,399.3,567.9,398.9z"/>
	<path d="M516.8,394.5c0.1,1.2-0.4,2.1-1.4,2.2c-0.7,0.1-1.3-0.1-1.5-0.8c-0.2-1,0.9-2.2,2-2.1C516.3,393.8,516.6,394.3,516.8,394.5
		z"/>
	<path d="M641.4,655.6c-0.2,0.8-1.3,1.6-2.1,1.4c-0.1,0-0.3-0.1-0.3-0.3c-0.3-0.8,0.1-1.5,0.8-1.9c0.3-0.2,0.9-0.1,1.2,0
		C641.3,654.9,641.3,655.3,641.4,655.6z"/>
	<path d="M317.1,369.4c-1-1.3-0.8-2.5-0.7-3.7c0-0.2,0.4-0.5,0.6-0.5c0.2,0,0.6,0.3,0.7,0.5C318.1,366.9,318,368.1,317.1,369.4z"/>
	<path d="M847.3,701.7c0.5,0.9,1.1,1.8,1.6,2.6c-0.9,0.6-1.8,0.3-2.5-0.8C845.9,702.9,846,702.7,847.3,701.7z"/>
	<path d="M364.4,555c-0.2,1.9-0.7,2.3-2.1,1.8c-0.4-0.1-0.8-0.5-0.9-0.9c0-0.2,0.5-0.8,0.8-0.9C362.9,554.9,363.6,555,364.4,555z"/>
	<path d="M487.3,873.1c0.2,1-0.7,2.1-1.6,2c-0.4,0-0.8-0.4-1-0.8c-0.3-0.9,0.5-1.8,1.5-1.8C486.6,872.6,487,872.9,487.3,873.1z"/>
	<path d="M319,202c0.4,0.2,0.9,0.4,0.9,0.5c-0.1,0.4-0.2,1-0.5,1.1c-0.6,0.2-1.2,0.1-1.8,0.2c-0.1,0-0.3-0.2-0.3-0.3
		c0-0.3,0-0.7,0.2-0.8C317.9,202.4,318.5,202.2,319,202z"/>
	<path d="M674.6,337.3c-0.8,0.6-1.3,1.2-1.9,1.3c-0.3,0.1-1.2-0.7-1.2-1c0.1-0.9,1-1,1.7-1C673.6,336.5,673.9,336.9,674.6,337.3z"/>
	<path d="M155,233.9c-0.2,0.2-0.3,0.7-0.7,0.9c-0.6,0.4-1.4-0.3-1.4-1.3c0-0.4,0.2-0.9,0.5-1.1C154,232,154.8,232.8,155,233.9z"/>
	<path d="M396.8,573.5c0-0.8-0.1-1.6-0.1-2.4c1.3-0.4,2.2,0,2.2,1.1C398.9,573.2,398.1,573.7,396.8,573.5z"/>
	<path d="M548.6,679.4c-1.1,2-1.7,2.2-2.7,1.1c-0.2-0.2-0.3-0.6-0.3-0.8c0-0.2,0.4-0.6,0.6-0.6C547,679.2,547.8,679.3,548.6,679.4z"
		/>
	<path d="M875.3,674.6c-0.4,0.4-0.7,0.9-1.2,1.2c-0.2,0.1-0.8-0.2-1.1-0.4c-0.1-0.1-0.1-0.7,0.1-0.8c0.5-0.3,1.1-0.6,1.6-0.8
		C874.8,673.8,875,674.2,875.3,674.6z"/>
	<path d="M350.3,542.3c1.7-0.1,2.5,0.3,2.7,1.3c0.1,0.4-0.1,1-0.4,1.2c-0.3,0.2-1,0.1-1.2-0.1C351,544.1,350.7,543.4,350.3,542.3z"
		/>
	<path d="M651.4,357.5c-0.3,0.1-0.9,0.4-1.1,0.3c-0.4-0.4-0.6-0.9-0.8-1.4c0.4-0.1,0.8-0.5,1.1-0.4
		C651.3,356.2,651.7,356.6,651.4,357.5z"/>
	<path d="M340.5,278.7c-0.1,0-0.3,0.1-0.4,0.1c-0.8-0.4-1.8-0.5-1.9-1.7c0-0.1,0.1-0.3,0.2-0.4c1.1-0.3,1.7,0.5,2.2,1.2
		C340.7,278.1,340.5,278.5,340.5,278.7z"/>
	<path d="M338.8,331.6c0,1.1-0.5,1.6-1.4,1.7c-0.3,0-0.8-0.1-0.8-0.3c-0.1-0.4-0.1-0.8,0.1-1.1c0.3-0.3,0.7-0.6,1.1-0.7
		C338.2,331.1,338.5,331.5,338.8,331.6z"/>
	<path d="M885.1,777.3c-0.2,0.2-0.6,0.8-0.8,0.7c-0.5-0.2-1-0.6-1.4-0.9c0.4-0.4,0.8-1,1.2-1.1C884.9,775.8,885.1,776.5,885.1,777.3
		z"/>
	<path d="M460.3,396.5c0.5,0.6,0.8,1.3,0.3,2C459.9,398,459.8,397.3,460.3,396.5z"/>
	<path d="M314.6,221.5c-0.2-0.2-0.6-0.3-0.6-0.5c0-0.6,0.1-1.2,0.4-1.8c0.1-0.2,1-0.2,1.2,0C316.1,220.1,315.5,221.4,314.6,221.5z"
		/>
	<path d="M492.3,535.7c-0.3-0.1-0.6-0.1-0.8-0.3c-0.1-0.2-0.1-0.6,0-0.8c0.3-0.3,0.7-0.7,1.1-0.8c0.4-0.1,0.8,0,1,0.5
		c0.2,0.5-0.2,0.7-0.4,1C492.9,535.6,492.5,535.6,492.3,535.7z"/>
	<path d="M547.9,379.1c-1.1-0.1-1.6-0.7-1.4-1.3c0.2-0.4,0.6-0.7,1-0.8c0.7-0.1,1.4,0.3,1.3,1C548.7,378.5,548.1,378.9,547.9,379.1z
		"/>
	<path d="M731.9,683.2c-0.3-0.1-0.6-0.1-0.8-0.2c-0.2-0.1-0.5-0.6-0.4-0.7c0.2-0.3,0.6-0.5,0.9-0.6c0.2-0.1,0.6,0.1,0.8,0.3
		c0.2,0.2,0.3,0.6,0.3,0.8C732.5,682.9,732.2,683,731.9,683.2z"/>
	<path d="M316.3,328.8c-0.2-0.4-0.5-0.7-0.7-1.1c0.3-0.2,0.9-0.5,1-0.4c0.3,0.2,0.4,0.7,0.5,1.1
		C317.1,328.5,316.6,328.7,316.3,328.8z"/>
	<path d="M747.4,352.8c-0.1,0.3-0.2,0.6-0.4,0.7c-0.2,0.1-0.6,0.2-0.9,0.1c-0.4-0.1-0.1-0.8,0.4-1
		C746.9,352.6,747.2,352.8,747.4,352.8z"/>
	<path d="M262,156.8c-0.2,0.1-0.5,0.2-0.7,0.3c-0.1-0.3-0.2-0.6-0.4-1c0.3,0,0.6-0.2,0.8,0C261.9,156.2,261.9,156.6,262,156.8z"/>
	<path d="M511.8,364.4c-0.2-0.4-0.4-0.7-0.7-1.1c0.3-0.2,0.5-0.4,0.8-0.4c0.6,0,0.9,0.3,0.7,0.9C512.6,364,512.2,364.1,511.8,364.4z
		"/>
	<path d="M898.1,705.7c0.3,0.3,0.6,0.5,0.9,0.8c-0.3,0.3-0.5,0.5-0.8,0.8c-0.3-0.3-0.6-0.6-0.8-0.9
		C897.4,706.3,897.8,706,898.1,705.7z"/>
	<path d="M746.3,701.5c-0.3,0.3-0.5,0.8-0.8,0.9c-0.3,0.1-0.6-0.3-0.9-0.5c0.3-0.3,0.5-0.6,0.9-0.8
		C745.6,701,745.9,701.3,746.3,701.5z"/>
	<path d="M188.3,288.3c-0.4,0.5-0.7,0.8-0.9,1.1c-0.3-0.3-0.6-0.5-0.9-0.8c0-0.1,0.3-0.6,0.5-0.6
		C187.3,287.9,187.7,288.1,188.3,288.3z"/>
	<path d="M798.8,981.1c-0.2,0.2-0.2,0.4-0.3,0.5c-0.3-0.3-0.5-0.6-0.8-0.9c0,0,0.1-0.2,0.2-0.3C798.3,980.7,798.5,980.9,798.8,981.1
		z"/>
</g>
</svg>
